<svg width="114" height="127" viewBox="0 0 114 127" fill="none" xmlns="http://www.w3.org/2000/svg">
<path fill-rule="evenodd" clip-rule="evenodd" d="M80.4383 105.484C100.127 96.9315 113.84 77.781 113.84 55.5283C113.84 25.3058 88.5444 0.805511 57.3403 0.805511C26.1362 0.805511 0.840332 25.3058 0.840332 55.5283C0.840332 85.7509 26.1362 110.251 57.3403 110.251V126.544L80.4383 105.484Z" fill="white"/>
<path d="M89.3158 43.509C87.0931 38.137 83.5134 33.4464 78.9336 29.9047C74.3539 26.363 68.9338 24.0938 63.2137 23.3232C57.4936 22.5527 51.6732 23.3077 46.3325 25.5131C40.9918 27.7184 36.3174 31.2971 32.775 35.8925C29.2327 40.4878 26.9461 45.9393 26.1432 51.7038C25.3403 57.4682 26.0492 63.3443 28.1991 68.7463C30.349 74.1483 33.8649 78.8877 38.3964 82.492C42.9279 86.0964 48.3167 88.44 54.0259 89.2891C53.278 86.5709 52.5173 83.5666 51.8469 80.3802C53.7973 81.6564 55.8503 82.7658 57.9842 83.6967V83.6967C57.9842 83.6967 58.139 86.5059 58.3453 89.6403C60.6509 89.6804 62.9544 89.4755 65.2176 89.029C65.1591 88.7022 65.1591 88.3674 65.2176 88.0406C65.5915 85.6085 66.623 81.2256 66.8293 78.4033C68.3163 77.0004 69.5777 75.3725 70.5684 73.5782V73.5782L70.4911 74.1505C69.7819 79.6909 68.2991 85.6085 67.3966 87.2472C67.1044 87.7896 66.7448 88.2923 66.3264 88.7429C70.9936 87.6385 75.3669 85.5234 79.143 82.5443C82.9192 79.5652 86.0078 75.7933 88.1948 71.4902C90.3817 67.1871 91.6148 62.4557 91.8083 57.6241C92.0019 52.7924 91.1514 47.9761 89.3158 43.509V43.509ZM87.4204 48.4381C86.8531 48.9974 85.6798 49.3746 85.4864 47.6838C85.293 45.9931 85.2414 44.8096 85.2414 44.8096C85.2414 44.8096 82.7529 40.3486 81.8246 40.2966C80.8962 40.2445 74.3076 44.8096 72.5669 46.7994C71.0584 48.4772 70.7618 48.3601 70.7618 51.3124C70.7618 53.5364 71.0455 61.9381 70.8908 68.3629L60.3824 71.1851C57.0795 72.1413 53.7207 72.8884 50.3254 73.4221L49.036 65.8398H48.8555L45.5419 48.7113C45.5419 48.7113 40.6294 46.8384 38.8243 46.3312C37.9767 45.9572 37.0407 45.8356 36.1269 45.9808C35.213 46.126 34.3594 46.5319 33.6668 47.1506C32.9603 47.7746 32.3953 48.5449 32.0104 49.4089C31.6255 50.273 31.4296 51.2105 31.4362 52.1578C31.7088 52.7623 31.9163 53.3945 32.0551 54.0436C32.1196 54.6679 30.5079 54.6029 29.4764 54.6029C28.4449 54.6029 28.2902 52.73 29.1025 50.5321C29.7362 48.842 30.5217 47.2138 31.4491 45.6679C32.1467 44.287 33.0464 43.0199 34.1181 41.9093C34.1181 41.9093 34.2986 41.4671 35.7298 41.5971C37.161 41.7272 45.1164 42.1564 45.1164 42.1564L45.1808 39.2041C53.8278 37.9998 62.5487 37.4174 71.2776 37.4613C71.2776 38.2547 71.2776 39.048 71.2776 39.8414C74.5838 38.3194 78.144 37.4371 81.773 37.2402C81.9672 37.2353 82.1595 37.279 82.3328 37.3676C82.5061 37.4561 82.6549 37.5866 82.7658 37.7474C83.2042 38.3067 85.8732 41.6492 86.1826 42.1304C87.0493 43.3798 87.8374 44.683 88.5422 46.0321C88.3006 46.8863 87.9216 47.6948 87.4204 48.4251V48.4381Z" fill="#FDC305"/>
<path d="M84.9069 40.4786C85.513 41.259 86.0416 41.9483 86.1963 42.1564C87.063 43.4058 87.8511 44.709 88.5559 46.0581C88.3105 46.8843 87.9362 47.6658 87.447 48.3731C86.8797 48.9323 85.7064 49.3095 85.513 47.6188C85.3195 45.928 85.2422 44.8095 85.2422 44.8095C85.2422 44.8095 82.7537 40.3486 81.8254 40.2966C80.897 40.2445 74.3084 44.8095 72.5677 46.7994C71.0592 48.4771 70.7626 48.3601 70.7626 51.3124C70.7626 53.2633 70.9818 59.9612 70.9302 65.9178C73.264 66.1779 76.6937 66.8282 77.7252 68.3629C77.7252 68.3629 77.3513 59.0248 87.7951 63.9149C87.7951 63.9149 88.1562 51.1823 102.571 54.4468C97.6709 48.6434 91.6638 43.8932 84.9069 40.4786V40.4786Z" fill="#F06351"/>
<path d="M71.33 37.4613C71.3825 30.2545 70.7782 23.0581 69.5249 15.9629C69.5249 15.9629 69.3315 14.2721 68.4032 15.6507C67.6371 17.2988 67.1158 19.0517 66.8559 20.853C61.3441 20.4963 55.8116 20.6443 50.3263 21.2952C49.269 17.7186 47.4639 16.0929 46.6 16.5221C45.7362 16.9513 45.633 20.788 45.633 20.788L45.2075 39.2041C53.863 37.9986 62.5926 37.4162 71.33 37.4613V37.4613Z" fill="#F06351"/>
<path d="M70.581 73.5782C70.7486 72.1866 70.8389 70.3398 70.8904 68.2979L60.3826 71.1201C57.0813 72.0982 53.7226 72.867 50.3261 73.4221L51.7572 79.925C51.7572 80.068 51.7572 80.2111 51.8475 80.3542C53.7979 81.6304 55.8507 82.7398 57.9846 83.6706C61.103 82.1669 64.073 80.3684 66.8549 78.2993V78.3773C68.3352 76.9813 69.5921 75.3624 70.581 73.5782V73.5782Z" fill="#E55645"/>
<path d="M53.3691 33.3905C53.3046 33.2605 54.6584 34.2749 55.187 34.5871C55.7156 34.8992 55.9735 35.1333 55.9735 35.3544C55.9735 35.5755 55.6383 35.7966 55.1741 35.7966C54.71 35.7966 53.988 35.6405 53.8848 35.4584C53.7817 35.2764 54.6584 35.4584 55.0968 35.4584H55.4707C54.6769 34.8727 53.9693 34.1765 53.3691 33.3905Z" fill="black"/>
<path d="M63.0391 33.5336C63.0391 33.5336 61.7498 35.1983 61.6338 35.2764C61.5177 35.3544 61.4146 35.7186 61.8787 35.6535C62.4116 35.5733 62.9375 35.4516 63.4517 35.2894C63.5935 35.2113 63.5419 35.0293 63.2969 35.0553C63.052 35.0813 62.4202 35.1203 62.0077 35.1983L63.1036 33.5466C63.1036 33.5466 63.1422 33.3905 63.0391 33.5336Z" fill="black"/>
<path d="M58.9905 41.4801C59.5881 41.2145 60.0821 40.7573 60.3958 40.1795C60.7568 39.3211 60.3958 38.996 59.8285 38.879C59.0481 38.7353 58.2426 38.8932 57.5722 39.3211C57.0694 39.8024 57.1339 40.2706 57.5722 40.6217C58.0077 40.9662 58.4842 41.2546 58.9905 41.4801V41.4801Z" fill="black"/>
<path d="M58.5264 43.1188C58.3784 43.4138 58.1773 43.6784 57.9333 43.8991C57.5661 44.1971 57.1148 44.3702 56.644 44.3934C55.9342 44.4636 55.2244 44.2591 54.6585 43.8211C54.3986 43.6678 54.1674 43.4697 53.9752 43.2358C53.8462 43.0942 53.6877 42.9831 53.511 42.9107C53.511 42.9107 54.478 48.2561 56.8245 49.1144C59.1711 49.9728 59.6094 48.126 59.6739 47.6318C59.7524 46.1516 59.3838 44.6822 58.6167 43.4179C58.6167 43.0278 58.5909 43.2879 58.5264 43.1188Z" fill="#F06351"/>
<path d="M56.3345 44.6015C55.7311 44.514 55.1516 44.3041 54.6308 43.9844C54.1101 43.6648 53.6589 43.242 53.3046 42.7417C53.2729 42.7059 53.2554 42.6596 53.2554 42.6116C53.2554 42.5636 53.2729 42.5173 53.3046 42.4815C53.3214 42.4642 53.3415 42.4505 53.3636 42.4411C53.3858 42.4317 53.4095 42.4269 53.4335 42.4269C53.4576 42.4269 53.4813 42.4317 53.5035 42.4411C53.5256 42.4505 53.5457 42.4642 53.5625 42.4815C53.8815 42.9331 54.2863 43.3162 54.7533 43.6086C55.2203 43.9011 55.7402 44.0971 56.2829 44.1853C56.7122 44.1528 57.1278 44.0179 57.4953 43.7918C57.8629 43.5657 58.1721 43.2548 58.3974 42.8847L58.5779 42.6376L58.7068 42.9237C58.7068 42.9237 59.1967 43.9122 59.9961 43.9642C60.7955 44.0162 61.3627 43.418 62.0976 42.2865C62.125 42.2451 62.1675 42.2163 62.2159 42.2066C62.2643 42.1968 62.3145 42.2068 62.3555 42.2344C62.3965 42.262 62.425 42.3049 62.4347 42.3537C62.4444 42.4025 62.4344 42.4532 62.4071 42.4945C61.5475 43.7691 60.7353 44.3804 59.9703 44.3284C59.6746 44.2888 59.3915 44.183 59.1416 44.0188C58.8917 43.8545 58.6815 43.6359 58.5263 43.3789C58.274 43.7343 57.9464 44.0284 57.5672 44.2399C57.1881 44.4514 56.7669 44.5749 56.3345 44.6015Z" fill="black"/>
<path d="M58.8615 62.1071C61.5317 62.1071 63.6964 59.9236 63.6964 57.23C63.6964 54.5364 61.5317 52.3529 58.8615 52.3529C56.1913 52.3529 54.0266 54.5364 54.0266 57.23C54.0266 59.9236 56.1913 62.1071 58.8615 62.1071Z" fill="#FDC305"/>
<path d="M65.2693 53.2633L61.2337 54.967L62.7164 47.6448L53.0467 60.3384L57.0822 58.6346L55.5995 65.9698L65.2693 53.2633ZM55.7413 58.2445L61.1048 51.2084L60.0605 56.4106L62.6391 55.3442L57.2369 62.3933L58.2812 57.191L55.7413 58.2445Z" fill="#111111"/>
<path d="M53.9363 56.3326C54.7338 56.3326 55.3803 55.6805 55.3803 54.876C55.3803 54.0715 54.7338 53.4193 53.9363 53.4193C53.1388 53.4193 52.4923 54.0715 52.4923 54.876C52.4923 55.6805 53.1388 56.3326 53.9363 56.3326Z" fill="#111111"/>
<path d="M62.343 61.6129C62.9055 61.6129 63.3615 61.1529 63.3615 60.5855C63.3615 60.018 62.9055 59.558 62.343 59.558C61.7804 59.558 61.3244 60.018 61.3244 60.5855C61.3244 61.1529 61.7804 61.6129 62.343 61.6129Z" fill="#111111"/>
<path d="M63.581 58.7907C63.8302 58.7907 64.0322 58.5869 64.0322 58.3355C64.0322 58.0841 63.8302 57.8803 63.581 57.8803C63.3317 57.8803 63.1297 58.0841 63.1297 58.3355C63.1297 58.5869 63.3317 58.7907 63.581 58.7907Z" fill="#111111"/>
<path d="M71.2654 39.8154C68.938 41.9318 66.7459 44.195 64.7026 46.5914C62.6672 48.9705 60.3703 51.1085 57.856 52.9642C57.5724 52.2749 55.7544 50.9873 55.7544 50.9873C55.7544 50.9873 51.7058 48.1911 49.0497 45.9931C47.6139 44.7868 46.2612 43.4832 45.0011 42.0914L42.4224 41.9483C46.1448 47.433 51.5982 51.4853 57.8947 53.4454C59.0036 53.2633 62.1238 51.0133 64.4576 49.1795C67.2186 46.811 69.8042 44.242 72.1938 41.4931C72.836 40.7231 73.3341 39.8417 73.6637 38.892C72.1938 39.3862 71.2654 39.8154 71.2654 39.8154Z" fill="#F06351"/>
<path d="M45.5426 48.7113C45.5426 48.7113 40.6302 46.8385 38.8251 46.3312C37.9775 45.9572 37.0415 45.8356 36.1276 45.9808C35.2138 46.126 34.3602 46.5319 33.6676 47.1506C32.961 47.7746 32.3961 48.5449 32.0112 49.4089C31.6263 50.273 31.4304 51.2105 31.437 52.1578C31.7096 52.7623 31.917 53.3945 32.0559 54.0436C32.1204 54.6679 30.5087 54.6029 29.4772 54.6029C28.4457 54.6029 28.291 52.73 29.1033 50.5321C29.737 48.842 30.5225 47.2138 31.4499 45.6679C24.4229 49.3616 12.1094 57.8933 12.1094 57.8933C15.6316 57.6791 19.1657 57.7835 22.6693 58.2054C29.4385 58.8948 29.1161 64.2791 29.1161 64.2791C31.497 63.617 33.9234 63.1345 36.3753 62.8355C39.1087 62.6534 39.3021 65.5927 39.3021 65.5927L39.9855 70.6129C41.0231 69.4805 42.1674 68.4525 43.4023 67.5436C44.994 66.2583 47.0206 65.6516 49.0497 65.8528V65.8528L45.5426 48.7113Z" fill="#F06351"/>
</svg>
