<svg width="94" height="104" viewBox="0 0 94 104" fill="none" xmlns="http://www.w3.org/2000/svg">
<path fill-rule="evenodd" clip-rule="evenodd" d="M66.0842 86.6073C82.2221 79.5969 93.4628 63.8999 93.4628 45.66C93.4628 20.8876 72.7285 0.805511 47.1516 0.805511C21.5746 0.805511 0.840332 20.8876 0.840332 45.66C0.840332 70.4325 21.5745 90.5145 47.1515 90.5145V103.869L66.0842 86.6073Z" fill="white"/>
<path d="M73.3608 35.8082C71.5389 31.4049 68.6048 27.5602 64.8509 24.6572C61.097 21.7541 56.6544 19.8941 51.9658 19.2625C47.2772 18.6309 42.5064 19.2498 38.1288 21.0575C33.7512 22.8651 29.9197 25.7985 27.0162 29.5651C24.1126 33.3318 22.2384 37.8002 21.5803 42.5252C20.9222 47.2501 21.5032 52.0665 23.2654 56.4944C25.0276 60.9222 27.9095 64.8069 31.6238 67.7613C35.3381 70.7157 39.7552 72.6366 44.4348 73.3326C43.8218 71.1046 43.1983 68.6421 42.6487 66.0303C44.2475 67.0764 45.9302 67.9857 47.6793 68.7487C47.6793 68.7487 47.8062 71.0513 47.9753 73.6205C49.8652 73.6533 51.7532 73.4854 53.6083 73.1194C53.5603 72.8515 53.5603 72.5772 53.6083 72.3093C53.9148 70.3158 54.7602 66.7232 54.9293 64.4099C56.1482 63.26 57.1822 61.9257 57.9942 60.4549L57.9308 60.924C57.3495 65.4653 56.1341 70.3158 55.3943 71.659C55.1548 72.1036 54.8601 72.5156 54.5172 72.8849C58.3427 71.9797 61.9274 70.246 65.0225 67.8041C68.1177 65.3623 70.6493 62.2706 72.4419 58.7435C74.2345 55.2164 75.2452 51.3382 75.4039 47.3778C75.5625 43.4175 74.8654 39.4697 73.3608 35.8082ZM71.8072 39.8484C71.3422 40.3068 70.3805 40.616 70.222 39.2301C70.0634 37.8443 70.0212 36.8742 70.0212 36.8742C70.0212 36.8742 67.9814 33.2177 67.2205 33.1751C66.4596 33.1324 61.0591 36.8742 59.6323 38.5052C58.3958 39.8804 58.1527 39.7845 58.1527 42.2044C58.1527 44.0273 58.3852 50.9139 58.2584 56.1801L49.6451 58.4934C46.9378 59.2771 44.1846 59.8895 41.4017 60.327L40.3448 54.112H40.1968L37.4807 40.0723C37.4807 40.0723 33.4541 38.5372 31.9746 38.1215C31.2798 37.8149 30.5126 37.7152 29.7636 37.8342C29.0145 37.9532 28.3148 38.2859 27.7472 38.7931C27.168 39.3046 26.7049 39.9359 26.3894 40.6441C26.0739 41.3524 25.9134 42.1209 25.9188 42.8973C26.1422 43.3928 26.3123 43.911 26.4261 44.4431C26.4789 44.9548 25.1579 44.9014 24.3124 44.9014C23.4669 44.9014 23.3401 43.3664 24.0059 41.5648C24.5254 40.1795 25.1692 38.8449 25.9294 37.5778C26.5012 36.4459 27.2386 35.4073 28.1171 34.4969C28.1171 34.4969 28.265 34.1345 29.4381 34.2411C30.6112 34.3477 37.132 34.6995 37.132 34.6995L37.1848 32.2796C44.2724 31.2925 51.4207 30.8151 58.5755 30.8511C58.5755 31.5014 58.5755 32.1517 58.5755 32.8019C61.2855 31.5545 64.2036 30.8312 67.1782 30.6699C67.3374 30.6658 67.4951 30.7017 67.6371 30.7742C67.7791 30.8468 67.9011 30.9538 67.992 31.0856C68.3513 31.544 70.539 34.2837 70.7927 34.6782C71.5031 35.7023 72.149 36.7704 72.7267 37.8763C72.5287 38.5765 72.2181 39.2391 71.8072 39.8378V39.8484Z" fill="#FDC305"/>
<path d="M69.747 33.3243C70.2437 33.9639 70.677 34.5289 70.8039 34.6995C71.5143 35.7236 72.1602 36.7918 72.7379 37.8976C72.5368 38.5748 72.23 39.2153 71.829 39.7951C71.364 40.2535 70.4023 40.5627 70.2437 39.1768C70.0852 37.791 70.0218 36.8742 70.0218 36.8742C70.0218 36.8742 67.9821 33.2177 67.2211 33.175C66.4602 33.1324 61.0597 36.8742 59.633 38.5052C58.3965 39.8804 58.1534 39.7845 58.1534 42.2044C58.1534 43.8034 58.333 49.2935 58.2908 54.176C60.2037 54.3892 63.0149 54.9222 63.8604 56.1801C63.8604 56.1801 63.5539 48.526 72.1144 52.5343C72.1144 52.5343 72.4103 42.0978 84.2259 44.7735C80.2092 40.0167 75.2854 36.1231 69.747 33.3243Z" fill="#F06351"/>
<path d="M58.6184 30.8511C58.6614 24.9439 58.1661 19.0453 57.1389 13.2295C57.1389 13.2295 56.9803 11.8437 56.2194 12.9737C55.5915 14.3246 55.1642 15.7613 54.9512 17.2378C50.4333 16.9454 45.8985 17.0667 41.4024 17.6003C40.5357 14.6687 39.0562 13.3361 38.3481 13.6879C37.64 14.0397 37.5554 17.1845 37.5554 17.1845L37.2067 32.2796C44.3013 31.2914 51.4566 30.8141 58.6184 30.8511Z" fill="#F06351"/>
<path d="M58.0045 60.4549C58.1419 59.3143 58.2159 57.8005 58.2581 56.1268L49.6452 58.4401C46.9393 59.2418 44.1862 59.872 41.4022 60.327L42.5753 65.6572C42.5753 65.7744 42.5753 65.8917 42.6492 66.009C44.2479 67.0551 45.9306 67.9644 47.6796 68.7274C50.2357 67.4948 52.6701 66.0207 54.9504 64.3246V64.3886C56.1637 63.2443 57.1939 61.9174 58.0045 60.4549Z" fill="#E55645"/>
<path d="M43.8965 27.5144C43.8436 27.4078 44.9533 28.2393 45.3866 28.4952C45.8198 28.751 46.0312 28.9429 46.0312 29.1241C46.0312 29.3053 45.7564 29.4866 45.376 29.4866C44.9955 29.4866 44.4037 29.3586 44.3192 29.2094C44.2347 29.0602 44.9533 29.2094 45.3126 29.2094H45.6191C44.9684 28.7293 44.3885 28.1586 43.8965 27.5144Z" fill="black"/>
<path d="M51.8227 27.6317C51.8227 27.6317 50.7659 28.9962 50.6707 29.0601C50.5756 29.1241 50.4911 29.4226 50.8715 29.3693C51.3083 29.3035 51.7393 29.2037 52.1608 29.0708C52.2771 29.0068 52.2348 28.8576 52.034 28.8789C51.8332 28.9002 51.3154 28.9322 50.9772 28.9962L51.8755 27.6423C51.8755 27.6423 51.9072 27.5144 51.8227 27.6317Z" fill="black"/>
<path d="M48.5041 34.1452C48.994 33.9275 49.3989 33.5527 49.656 33.0791C49.9519 32.3755 49.656 32.109 49.191 32.0131C48.5513 31.8953 47.8911 32.0247 47.3416 32.3755C46.9295 32.77 46.9823 33.1537 47.3416 33.4416C47.6986 33.724 48.0891 33.9603 48.5041 34.1452Z" fill="black"/>
<path d="M48.1238 35.4883C48.0024 35.7301 47.8376 35.947 47.6376 36.128C47.3366 36.3722 46.9667 36.514 46.5808 36.5331C45.999 36.5907 45.4172 36.423 44.9534 36.064C44.7403 35.9383 44.5508 35.776 44.3933 35.5843C44.2875 35.4682 44.1576 35.3771 44.0128 35.3178C44.0128 35.3178 44.8054 39.6992 46.7288 40.4028C48.6522 41.1064 49.0115 39.5926 49.0643 39.1875C49.1287 37.9742 48.8265 36.7698 48.1977 35.7335C48.1977 35.4137 48.1766 35.6269 48.1238 35.4883Z" fill="#F06351"/>
<path d="M46.3271 36.7036C45.8325 36.6319 45.3575 36.4599 44.9306 36.1979C44.5038 35.9359 44.134 35.5893 43.8436 35.1792C43.8176 35.1499 43.8032 35.1119 43.8032 35.0726C43.8032 35.0333 43.8176 34.9953 43.8436 34.966C43.8574 34.9518 43.8738 34.9405 43.892 34.9329C43.9101 34.9252 43.9296 34.9212 43.9493 34.9212C43.969 34.9212 43.9884 34.9252 44.0066 34.9329C44.0247 34.9405 44.0412 34.9518 44.0549 34.966C44.3165 35.3361 44.6482 35.6501 45.031 35.8898C45.4138 36.1296 45.84 36.2902 46.2848 36.3625C46.6367 36.3358 46.9773 36.2253 47.2786 36.04C47.5799 35.8546 47.8333 35.5998 48.0179 35.2965L48.1659 35.0939L48.2716 35.3284C48.2716 35.3284 48.6732 36.1386 49.3284 36.1813C49.9836 36.2239 50.4486 35.7335 51.0509 34.8061C51.0734 34.7722 51.1082 34.7486 51.1479 34.7406C51.1875 34.7326 51.2287 34.7408 51.2623 34.7634C51.2959 34.7861 51.3193 34.8212 51.3272 34.8612C51.3351 34.9012 51.327 34.9427 51.3046 34.9767C50.6 36.0214 49.9343 36.5224 49.3072 36.4798C49.0649 36.4474 48.8328 36.3607 48.628 36.226C48.4232 36.0913 48.2508 35.9122 48.1236 35.7016C47.9169 35.9928 47.6483 36.2339 47.3375 36.4072C47.0267 36.5806 46.6815 36.6818 46.3271 36.7036Z" fill="black"/>
<path d="M48.3984 51.0525C50.5871 51.0525 52.3614 49.2627 52.3614 47.0548C52.3614 44.847 50.5871 43.0572 48.3984 43.0572C46.2097 43.0572 44.4354 44.847 44.4354 47.0548C44.4354 49.2627 46.2097 51.0525 48.3984 51.0525Z" fill="#FDC305"/>
<path d="M53.6506 43.8034L50.3429 45.1999L51.5582 39.1982L43.6322 49.6027L46.94 48.2062L45.7247 54.2186L53.6506 43.8034ZM45.8409 47.8863L50.2372 42.1191L49.3812 46.3832L51.4948 45.5091L47.0668 51.287L47.9228 47.0229L45.8409 47.8863Z" fill="#111111"/>
<path d="M44.3614 46.3193C45.0151 46.3193 45.545 45.7847 45.545 45.1253C45.545 44.4659 45.0151 43.9314 44.3614 43.9314C43.7077 43.9314 43.1778 44.4659 43.1778 45.1253C43.1778 45.7847 43.7077 46.3193 44.3614 46.3193Z" fill="#111111"/>
<path d="M51.252 50.6474C51.7131 50.6474 52.0869 50.2703 52.0869 49.8052C52.0869 49.3401 51.7131 48.963 51.252 48.963C50.791 48.963 50.4172 49.3401 50.4172 49.8052C50.4172 50.2703 50.791 50.6474 51.252 50.6474Z" fill="#111111"/>
<path d="M52.2668 48.3341C52.4711 48.3341 52.6367 48.167 52.6367 47.961C52.6367 47.7549 52.4711 47.5879 52.2668 47.5879C52.0625 47.5879 51.8969 47.7549 51.8969 47.961C51.8969 48.167 52.0625 48.3341 52.2668 48.3341Z" fill="#111111"/>
<path d="M58.5655 32.7806C56.6577 34.5154 54.861 36.3704 53.1861 38.3347C51.5178 40.2848 49.6351 42.0372 47.5743 43.5583C47.3418 42.9933 45.8516 41.9379 45.8516 41.9379C45.8516 41.9379 42.5331 39.6459 40.356 37.8443C39.1791 36.8555 38.0703 35.787 37.0375 34.6462L34.9238 34.5289C37.9749 39.0246 42.4449 42.3461 47.606 43.9527C48.5149 43.8034 51.0724 41.9592 52.9853 40.4561C55.2485 38.5147 57.3678 36.409 59.3264 34.1558C59.8529 33.5247 60.2611 32.8022 60.5312 32.0237C59.3264 32.4288 58.5655 32.7806 58.5655 32.7806Z" fill="#F06351"/>
<path d="M37.4814 40.0723C37.4814 40.0723 33.4548 38.5372 31.9752 38.1215C31.2805 37.8149 30.5133 37.7152 29.7642 37.8342C29.0151 37.9532 28.3155 38.2859 27.7478 38.7931C27.1687 39.3046 26.7056 39.9359 26.3901 40.6441C26.0746 41.3524 25.9141 42.1209 25.9194 42.8973C26.1429 43.3928 26.3129 43.911 26.4267 44.4431C26.4796 44.9548 25.1585 44.9015 24.313 44.9015C23.4676 44.9015 23.3407 43.3664 24.0065 41.5648C24.526 40.1795 25.1698 38.8449 25.93 37.5778C20.1702 40.6053 10.0773 47.5985 10.0773 47.5985C12.9643 47.4229 15.861 47.5085 18.7329 47.8544C24.2813 48.4194 24.0171 52.8328 24.0171 52.8328C25.9686 52.2901 27.9575 51.8946 29.9672 51.6495C32.2077 51.5002 32.3662 53.9095 32.3662 53.9095L32.9264 58.0244C33.7769 57.0962 34.7148 56.2536 35.727 55.5085C37.0317 54.4551 38.6929 53.9577 40.356 54.1227L37.4814 40.0723Z" fill="#F06351"/>
</svg>
