<svg viewBox="0 0 101 19" fill="none" xmlns="http://www.w3.org/2000/svg">
  <g fill="#111">
    <path d="M1.26 16.55A6.86 6.86 0 0 1 0 12.25v-6.4c-.1-1.54.3-3.08 1.19-4.38.86-1 2.2-1.46 4.18-1.46 1.98 0 3.24.46 4.03 1.3A5.42 5.42 0 0 1 10.6 5.1v1.54H6.72V4.86a3.7 3.7 0 0 0-.24-1.54 1.16 1.16 0 0 0-1.1-.62c-.56 0-.95.16-1.11.54a4.85 4.85 0 0 0-.24 1.7v8.22c-.04.56.07 1.12.32 1.62.15.38.55.54 1.1.54.56 0 .87-.16 1.03-.54.18-.52.26-1.07.24-1.62v-1.84h3.87v1.54A5.77 5.77 0 0 1 9.4 16.7c-.79.93-2.13 1.39-4.03 1.39-1.9-.08-3.32-.54-4.1-1.54ZM15.25.24h4.5l3.33 17.54h-3.64l-.63-3.7h-2.6l-.64 3.7h-3.72L15.25.24Zm3.24 11.54-.95-6.85-.94 6.85h1.9ZM25.84 3.16h-2.68V.24h9.4V3.1h-2.69v14.69h-4.03V3.16ZM39.75.24h6.96V2.1h-4.5v5.77h3.63v1.77H42.2v6.46h4.5v1.77h-7.03V.24h.08ZM48.76.24h1.74l5.14 11.62V.24h2.05v17.54h-1.58l-5.21-12v12h-2.14V.24ZM60.06.24h6.96V2.1h-4.5v5.77h3.63v1.77H62.5v6.46h4.5v1.77h-6.95V.24ZM69.07.24h3.64c1.43-.1 2.85.28 4.03 1.08.87.7 1.26 1.92 1.26 3.54 0 2.23-.7 3.61-2.21 4.07l2.53 8.77h-2.45L73.5 9.47h-1.98v8.23H69V.24h.08Zm3.48 7.54c.81.07 1.63-.15 2.3-.62.47-.38.7-1.15.7-2.3a4.85 4.85 0 0 0-.23-1.7c-.18-.39-.49-.71-.87-.92a3.69 3.69 0 0 0-1.74-.3h-1.1V7.7h.94v.08ZM81.16 16.47a7.61 7.61 0 0 1-1.1-4.46V6.16c-.02-1.11.11-2.22.4-3.3.26-.81.78-1.51 1.5-2 .88-.51 1.9-.75 2.92-.7 1.66 0 2.84.39 3.55 1.24a5.77 5.77 0 0 1 1.11 3.84v.62h-2.37v-.54c0-.65-.05-1.29-.16-1.92-.06-.4-.3-.77-.63-1a2.5 2.5 0 0 0-1.5-.39 2.42 2.42 0 0 0-1.58.46 1.75 1.75 0 0 0-.63 1.23c-.1.7-.16 1.38-.16 2.08v6.54c-.06 1 .1 2 .47 2.92.32.62.95.85 1.9.85a1.96 1.96 0 0 0 1.9-.93c.41-.97.6-2.02.55-3.07v-1.23h-2.3V9.09h4.59v8.69h-1.58l-.24-2c-.2.67-.64 1.25-1.22 1.66-.6.4-1.3.6-2.02.57a4.05 4.05 0 0 1-3.4-1.54ZM94.68 11.63 90.8.32h2.37l2.76 8.46L98.63.32H101l-3.87 11.3v6.16h-2.37v-6.15h-.08Z" />
  </g>
</svg>
