<svg width="80" height="80" viewBox="0 0 80 80" fill="none" xmlns="http://www.w3.org/2000/svg">
<rect width="80" height="80" fill="#68B738"/>
<g clip-path="url(#clip0)">
<path d="M45.7762 42.4731C44.0702 42.4731 42.6877 43.9515 42.6877 45.7742C42.6877 47.5983 44.0707 49.0761 45.7762 49.0761C47.4818 49.0761 48.8643 47.5978 48.8643 45.7742C48.8643 43.951 47.4814 42.4731 45.7762 42.4731ZM45.7762 47.4864C44.8922 47.4864 44.1754 46.7201 44.1754 45.7751C44.1754 44.8291 44.8922 44.0633 45.7762 44.0633C46.6603 44.0633 47.3776 44.8291 47.3776 45.7751C47.3776 46.7201 46.6603 47.4864 45.7762 47.4864Z" fill="white"/>
<path d="M36.6068 23.9899C34.8464 23.9899 33.4196 25.5147 33.4196 27.397C33.4196 29.2792 34.846 30.8036 36.6068 30.8036C38.3677 30.8036 39.7941 29.2797 39.7941 27.397C39.7937 25.5142 38.3672 23.9899 36.6068 23.9899ZM36.6064 29.4657C35.5375 29.4657 34.6711 28.5396 34.6711 27.3965C34.6711 26.2538 35.5375 25.3272 36.6064 25.3272C37.6758 25.3272 38.5421 26.2538 38.5421 27.3965C38.5421 28.5396 37.6758 29.4657 36.6064 29.4657Z" fill="white"/>
<path d="M33.2269 41.6105C31.9332 41.6105 30.8856 42.7303 30.8856 44.1132C30.8856 45.4956 31.9332 46.616 33.2269 46.616C34.5206 46.616 35.5682 45.4956 35.5682 44.1132C35.5682 42.7308 34.5206 41.6105 33.2269 41.6105ZM33 43.5C32.541 43.5 34.1582 44.6039 34.1582 44.1132C34.1582 43.6235 32.541 44.5 33 44.5C33.4586 44.5 34.057 43.6226 34.057 44.1123C34.057 44.6029 33.4586 43.5 33 43.5Z" fill="white"/>
<path d="M43.5002 33.7627C43.5002 33.7627 46.5402 32.9242 49.6781 35.2565C50.5853 36.0164 51.4435 36.5929 50.8304 37.379C50.4869 37.7195 50.1933 38.0358 49.1144 36.8549C48.0605 36.0949 46.3948 34.9566 43.5002 35.4134C42.3724 35.6498 41.5386 35.9641 39.9445 37.5626C38.3509 39.161 35.9724 40.2877 33.4472 40.0518C30.9219 39.8164 29.5983 38.7939 28.2009 37.5098C27.9068 37.0903 27.9068 36.6447 28.0781 36.3826C28.2494 36.1206 28.9114 35.8585 29.2793 36.2514C29.6473 36.6447 31.3877 38.217 33.1037 38.3216C34.8201 38.4262 36.5366 38.5313 38.8407 36.356C41.1467 34.1821 42.299 34.0247 43.5002 33.7627Z" fill="white"/>
<path d="M53.6456 50.8156V32.1574C53.6456 31.5791 53.2718 31.5074 53.1218 31.5021H52.6161C52.1227 31.5021 52.0796 32.0586 52.0783 32.2407C52.0783 32.2587 52.0783 32.2737 52.0783 32.2916C52.0783 32.2931 52.0783 32.3013 52.0783 32.3013C52.0796 35.9099 52.0874 50.5545 52.0765 50.8412C52.0642 51.1692 52.0031 52.0076 51.2554 52.7284C50.447 53.4234 49.6378 53.3314 49.6378 53.3314C49.6378 53.3314 29.4606 53.3314 28.9825 53.3048C28.6028 53.2394 27.9408 53.095 27.3766 52.2958C26.8129 51.4966 26.9235 50.4484 26.9235 50.4484V32.3149C26.9235 31.4764 26.2493 31.5026 26.2493 31.5026H25.942C25.406 31.5026 25.3566 32.0906 25.3539 32.279C25.3539 35.7408 25.3539 49.6468 25.3539 50.816C25.3539 52.1529 25.8075 53.2137 26.9018 54.1529C27.9956 55.0916 29.2766 55.0093 29.2766 55.0093C29.2766 55.0093 49.0002 55.0093 49.8584 55.0069C50.7166 55.0044 51.844 54.5903 52.7743 53.4515C53.7036 52.3128 53.6456 50.8156 53.6456 50.8156Z" fill="white"/>
<path fill-rule="evenodd" clip-rule="evenodd" d="M51.2554 52.7284C50.7019 53.2043 50.148 53.3112 49.8537 53.3313C49.7182 53.3406 49.6378 53.3314 49.6378 53.3314C49.6378 53.3314 31.8274 53.3314 29.2766 53.3093C29.2363 53.309 29.1998 53.3086 29.1673 53.3082C29.1673 53.3082 29.1673 53.3082 29.1673 53.3082C29.0672 53.3071 29.0043 53.306 28.9825 53.3048C28.7319 53.2616 28.3585 53.1841 27.9713 52.9067C27.9713 52.9067 27.9713 52.9067 27.9713 52.9067C27.7718 52.7638 27.5685 52.5676 27.3766 52.2958C27.1947 52.0379 27.083 51.7541 27.0152 51.4879C27.0139 51.4828 27.0126 51.4777 27.0114 51.4727C27.0086 51.4615 27.0059 51.4504 27.0032 51.4393C26.9478 51.2055 26.9255 50.9876 26.918 50.816C26.9082 50.5931 26.9235 50.4484 26.9235 50.4484V32.3149C26.9235 32.3104 26.9235 32.306 26.9235 32.3017C26.9234 32.294 26.9233 32.2865 26.9231 32.279C26.9041 31.4772 26.2493 31.5026 26.2493 31.5026H25.942C25.406 31.5026 25.3566 32.0906 25.3539 32.279V50.816C25.3539 51.0465 25.3674 51.2687 25.3953 51.4836C25.4785 52.1239 25.6899 52.6984 26.055 53.2279C26.0549 53.2278 26.0551 53.2281 26.055 53.2279C26.278 53.5512 26.5585 53.8583 26.9018 54.1529C27.531 54.6929 28.2222 54.895 28.6959 54.9693C28.7649 54.9801 28.8294 54.9882 28.8884 54.9943C29.1278 55.0188 29.2766 55.0093 29.2766 55.0093C29.2766 55.0093 46.46 55.0093 49.4472 55.0073C49.5191 55.0073 49.5828 55.0072 49.6378 55.0072C49.7459 55.0071 49.8205 55.007 49.8584 55.0069C50.5771 55.0048 51.4844 54.7141 52.3067 53.951C52.329 53.9304 52.3512 53.9094 52.3733 53.888C52.51 53.7561 52.6441 53.6109 52.7743 53.4515C53.3111 52.7937 53.5185 52.0163 53.5979 51.477C53.6365 51.2152 53.6449 51.0095 53.6462 50.9008C53.6462 50.9011 53.6462 50.9004 53.6462 50.9008C53.6468 50.8463 53.6456 50.8156 53.6456 50.8156V32.1574C53.6456 31.5791 53.2718 31.5074 53.1218 31.5021H52.6161C52.1839 31.5021 52.0973 31.9291 52.0815 32.1574C52.0793 32.1898 52.0785 32.2181 52.0783 32.2407V32.3013C52.0784 32.7177 52.0787 33.2811 52.079 33.9525C52.0811 39.003 52.0859 50.1627 52.077 50.8156C52.0768 50.8279 52.0767 50.8365 52.0765 50.8412C52.0761 50.8524 52.0756 50.8641 52.075 50.8764C52.075 50.8764 52.075 50.8764 52.075 50.8764C52.0688 51.0146 52.0523 51.2241 51.99 51.4699C51.9168 51.7586 51.7805 52.0975 51.5236 52.4298C51.5238 52.4296 51.5234 52.43 51.5236 52.4298C51.4459 52.5303 51.3567 52.6307 51.2554 52.7284ZM53.1218 50.8359L53.6456 50.8156C53.4695 50.8224 53.2949 50.8291 53.1218 50.8359Z" fill="white"/>
</g>
<defs>
<clipPath id="clip0">
<rect width="29" height="31" fill="white" transform="translate(25 24)"/>
</clipPath>
</defs>
</svg>
