<svg width="32" height="34" viewBox="0 0 32 34" fill="none" xmlns="http://www.w3.org/2000/svg">
<ellipse cx="21.2042" cy="11.3404" rx="1.0873" ry="1.08512" fill="white"/>
<ellipse cx="10.3311" cy="11.3404" rx="1.08731" ry="1.08512" fill="white"/>
<ellipse cx="10.3311" cy="24.3617" rx="1.08731" ry="1.08512" fill="white"/>
<ellipse cx="15.7677" cy="26.532" rx="1.0873" ry="1.08512" fill="white"/>
<ellipse cx="7.06924" cy="17.7853" rx="1.08731" ry="1.08512" fill="white"/>
<ellipse cx="24.4661" cy="17.7853" rx="1.0873" ry="1.08512" fill="white"/>
<ellipse cx="21.2042" cy="24.3617" rx="1.0873" ry="1.08512" fill="white"/>
<mask id="path-8-inside-1_130:940" fill="white">
<path fill-rule="evenodd" clip-rule="evenodd" d="M20.9215 29.0686C21.3298 28.8727 21.8226 28.9403 22.1385 29.2647L23.9644 31.1397C24.2319 31.4144 24.6734 31.4144 24.941 31.1396C25.1987 30.875 25.1987 30.4532 24.941 30.1886L23.5843 28.7954C23.1584 28.358 23.2228 27.6461 23.682 27.2438C26.3238 24.93 28 21.4793 28 17.625C28 10.6582 22.5235 5.0105 15.7678 5.0105C9.01218 5.0105 3.53564 10.6582 3.53564 17.625C3.53564 21.4393 5.17729 24.8582 7.77166 27.1713C8.22438 27.5749 8.28489 28.2813 7.86173 28.7159L6.42757 30.1886C6.16985 30.4532 6.16984 30.875 6.42756 31.1396C6.69513 31.4144 7.13664 31.4144 7.40421 31.1396L9.28384 29.2095C9.60245 28.8823 10.1004 28.8166 10.5102 29.0181C12.103 29.8012 13.8858 30.2395 15.7678 30.2395C17.609 30.2395 19.3553 29.82 20.9215 29.0686ZM15.7678 28.8379C21.7728 28.8379 26.6409 23.8177 26.6409 17.625C26.6409 11.4323 21.7728 6.41211 15.7678 6.41211C9.7628 6.41211 4.89478 11.4323 4.89478 17.625C4.89478 23.8177 9.7628 28.8379 15.7678 28.8379ZM15.0083 17.3085V13.5106V9.95142C15.0083 9.51992 15.3581 9.17013 15.7895 9.17013C16.221 9.17013 16.5708 9.51992 16.5708 9.95142V13.5106V17.3085V17.8511V18.1331C16.5708 18.5766 16.2113 18.9362 15.7677 18.9362C15.3483 18.9362 15.0083 18.5962 15.0083 18.1768V17.8511V17.3085Z"/>
</mask>
<path fill-rule="evenodd" clip-rule="evenodd" d="M20.9215 29.0686C21.3298 28.8727 21.8226 28.9403 22.1385 29.2647L23.9644 31.1397C24.2319 31.4144 24.6734 31.4144 24.941 31.1396C25.1987 30.875 25.1987 30.4532 24.941 30.1886L23.5843 28.7954C23.1584 28.358 23.2228 27.6461 23.682 27.2438C26.3238 24.93 28 21.4793 28 17.625C28 10.6582 22.5235 5.0105 15.7678 5.0105C9.01218 5.0105 3.53564 10.6582 3.53564 17.625C3.53564 21.4393 5.17729 24.8582 7.77166 27.1713C8.22438 27.5749 8.28489 28.2813 7.86173 28.7159L6.42757 30.1886C6.16985 30.4532 6.16984 30.875 6.42756 31.1396C6.69513 31.4144 7.13664 31.4144 7.40421 31.1396L9.28384 29.2095C9.60245 28.8823 10.1004 28.8166 10.5102 29.0181C12.103 29.8012 13.8858 30.2395 15.7678 30.2395C17.609 30.2395 19.3553 29.82 20.9215 29.0686ZM15.7678 28.8379C21.7728 28.8379 26.6409 23.8177 26.6409 17.625C26.6409 11.4323 21.7728 6.41211 15.7678 6.41211C9.7628 6.41211 4.89478 11.4323 4.89478 17.625C4.89478 23.8177 9.7628 28.8379 15.7678 28.8379ZM15.0083 17.3085V13.5106V9.95142C15.0083 9.51992 15.3581 9.17013 15.7895 9.17013C16.221 9.17013 16.5708 9.51992 16.5708 9.95142V13.5106V17.3085V17.8511V18.1331C16.5708 18.5766 16.2113 18.9362 15.7677 18.9362C15.3483 18.9362 15.0083 18.5962 15.0083 18.1768V17.8511V17.3085Z" fill="white"/>
<path d="M9.28384 29.2095L12.1495 32.0001L9.28384 29.2095ZM10.5102 29.0181L12.275 25.4285L10.5102 29.0181ZM7.40421 31.1396L4.53851 28.349L7.40421 31.1396ZM6.42757 30.1886L9.29325 32.9792L6.42757 30.1886ZM23.5843 28.7954L20.7186 31.5861L23.5843 28.7954ZM23.682 27.2438L21.0465 24.2348L23.682 27.2438ZM7.77166 27.1713L5.10971 30.1569L7.77166 27.1713ZM7.86173 28.7159L4.99605 25.9252L7.86173 28.7159ZM24.941 30.1886L27.8067 27.3979L24.941 30.1886ZM23.9644 31.1397L26.8301 28.349L23.9644 31.1397ZM22.1385 29.2647L19.2728 32.0554L22.1385 29.2647ZM20.9215 29.0686L19.1913 25.4621L20.9215 29.0686ZM19.2728 32.0554L21.0987 33.9303L26.8301 28.349L25.0042 26.474L19.2728 32.0554ZM27.8067 27.3979L26.45 26.0047L20.7186 31.5861L22.0753 32.9792L27.8067 27.3979ZM26.3175 30.2528C29.8075 27.196 32 22.6571 32 17.625H24C24 20.3016 22.8401 22.6639 21.0465 24.2348L26.3175 30.2528ZM32 17.625C32 8.566 24.8478 1.0105 15.7678 1.0105V9.0105C20.1992 9.0105 24 12.7504 24 17.625H32ZM15.7678 1.0105C6.68789 1.0105 -0.464355 8.566 -0.464355 17.625H7.53564C7.53564 12.7504 11.3365 9.0105 15.7678 9.0105V1.0105ZM-0.464355 17.625C-0.464355 22.6048 1.68296 27.1017 5.10971 30.1569L10.4336 24.1857C8.67162 22.6147 7.53564 20.2738 7.53564 17.625H-0.464355ZM4.99605 25.9252L3.56188 27.3979L9.29325 32.9792L10.7274 31.5065L4.99605 25.9252ZM10.2699 33.9303L12.1495 32.0001L6.41814 26.4188L4.53851 28.349L10.2699 33.9303ZM8.74538 32.6077C10.8722 33.6534 13.2573 34.2395 15.7678 34.2395V26.2395C14.5143 26.2395 13.3337 25.949 12.275 25.4285L8.74538 32.6077ZM15.7678 34.2395C18.2236 34.2395 20.5598 33.6786 22.6517 32.675L19.1913 25.4621C18.1508 25.9613 16.9944 26.2395 15.7678 26.2395V34.2395ZM15.7678 32.8379C24.0971 32.8379 30.6409 25.9099 30.6409 17.625H22.6409C22.6409 21.7255 19.4485 24.8379 15.7678 24.8379V32.8379ZM30.6409 17.625C30.6409 9.34009 24.0971 2.41211 15.7678 2.41211V10.4121C19.4485 10.4121 22.6409 13.5245 22.6409 17.625H30.6409ZM15.7678 2.41211C7.43851 2.41211 0.894775 9.34009 0.894775 17.625H8.89478C8.89478 13.5245 12.0871 10.4121 15.7678 10.4121V2.41211ZM0.894775 17.625C0.894775 25.9099 7.43851 32.8379 15.7678 32.8379V24.8379C12.0871 24.8379 8.89478 21.7255 8.89478 17.625H0.894775ZM12.5708 17.3085V17.8511H20.5708V17.3085H12.5708ZM12.5708 17.8511V18.1331H20.5708V17.8511H12.5708ZM19.0083 18.1768V17.8511H11.0083V18.1768H19.0083ZM19.0083 17.8511V17.3085H11.0083V17.8511H19.0083ZM19.0083 17.3085V13.5106H11.0083V17.3085H19.0083ZM19.0083 13.5106V9.95142H11.0083V13.5106H19.0083ZM12.5708 9.95142V13.5106H20.5708V9.95142H12.5708ZM12.5708 13.5106V17.3085H20.5708V13.5106H12.5708ZM15.7895 5.17013C13.1489 5.17013 11.0083 7.31078 11.0083 9.95142H19.0083C19.0083 11.7291 17.5672 13.1701 15.7895 13.1701V5.17013ZM12.5708 18.1331C12.5708 16.3675 14.0021 14.9362 15.7677 14.9362V22.9362C18.4204 22.9362 20.5708 20.7858 20.5708 18.1331H12.5708ZM12.1495 32.0001C11.1569 33.0195 9.7521 33.1027 8.74538 32.6077L12.275 25.4285C10.4487 24.5305 8.04805 24.7451 6.41814 26.4188L12.1495 32.0001ZM3.56185 33.9303C5.39966 35.8175 8.4321 35.8175 10.2699 33.9303L4.53851 28.349C5.84118 27.0113 7.99061 27.0113 9.29327 28.349L3.56185 33.9303ZM3.56188 27.3979C1.79175 29.2156 1.79174 32.1126 3.56185 33.9303L9.29327 28.349C10.548 29.6374 10.5479 31.6908 9.29325 32.9792L3.56188 27.3979ZM26.45 26.0047C27.7927 27.3836 27.394 29.3099 26.3175 30.2528L21.0465 24.2348C19.0515 25.9822 18.524 29.3324 20.7186 31.5861L26.45 26.0047ZM15.7895 13.1701C14.0119 13.1701 12.5708 11.7291 12.5708 9.95142H20.5708C20.5708 7.31078 18.4302 5.17013 15.7895 5.17013V13.1701ZM5.10971 30.1569C4.0463 29.2088 3.66263 27.2944 4.99605 25.9252L10.7274 31.5065C12.9071 29.2682 12.4025 25.9411 10.4336 24.1857L5.10971 30.1569ZM27.8067 33.9303C29.5768 32.1126 29.5768 29.2156 27.8067 27.3979L22.0753 32.9792C20.8206 31.6908 20.8206 29.6374 22.0753 28.349L27.8067 33.9303ZM21.0987 33.9303C22.9365 35.8175 25.9689 35.8175 27.8067 33.9303L22.0753 28.349C23.378 27.0113 25.5274 27.0113 26.8301 28.349L21.0987 33.9303ZM15.7677 14.9362C17.5574 14.9362 19.0083 16.387 19.0083 18.1768H11.0083C11.0083 20.8053 13.1391 22.9362 15.7677 22.9362V14.9362ZM25.0042 26.474C23.3881 24.8145 21.0117 24.5888 19.1913 25.4621L22.6517 32.675C21.648 33.1566 20.257 33.066 19.2728 32.0554L25.0042 26.474Z" fill="white" mask="url(#path-8-inside-1_130:940)"/>
<rect x="15" y="6.0105" width="4" height="1.5" transform="rotate(-90 15 6.0105)" fill="white"/>
<rect x="8" y="2.0105" width="15.5" height="1.5" rx="0.75" fill="white"/>
</svg>
