<svg width="94" height="104" xmlns="http://www.w3.org/2000/svg"><path d="M66.08 86.6c16.14-7 27.38-22.7 27.38-40.94C93.46 20.89 72.73.81 47.16.81 21.56.8.83 20.89.83 45.66c0 24.77 20.73 44.85 46.31 44.85v13.36L66.08 86.6z" fill="#fff"/><path d="M73.36 35.8a27.27 27.27 0 00-8.5-11.14 26.94 26.94 0 00-26.73-3.6 27.1 27.1 0 00-11.11 8.5 27.43 27.43 0 00-3.75 26.93 27.28 27.28 0 008.35 11.27 26.95 26.95 0 0012.81 5.57c-.6-2.23-1.23-4.69-1.78-7.3a34.06 34.06 0 005.03 2.72s.13 2.3.3 4.87a26.7 26.7 0 005.63-.5 2.3 2.3 0 010-.81c.3-2 1.15-5.59 1.32-7.9a16.2 16.2 0 003.06-3.96l-.06.47c-.58 4.55-1.8 9.4-2.54 10.74-.24.44-.53.86-.87 1.22a27 27 0 0010.5-5.08A27.28 27.28 0 0075.4 47.38c.16-3.96-.53-7.91-2.04-11.57zm-1.55 4.05c-.47.46-1.43.77-1.59-.62-.16-1.39-.2-2.36-.2-2.36s-2.04-3.65-2.8-3.7c-.76-.04-6.16 3.7-7.59 5.34-1.23 1.37-1.48 1.27-1.48 3.7 0 1.82.24 8.7.1 13.97l-8.6 2.31c-2.71.79-5.47 1.4-8.25 1.84l-1.06-6.22h-.14l-2.72-14.04s-4.03-1.53-5.5-1.95a3.94 3.94 0 00-4.23.67 5.4 5.4 0 00-1.83 4.1c.22.5.4 1.02.5 1.55.06.51-1.26.46-2.1.46-.85 0-.98-1.53-.31-3.34a24.41 24.41 0 011.92-3.98c.57-1.13 1.3-2.17 2.19-3.08 0 0 .14-.37 1.32-.26 1.17.1 7.7.46 7.7.46l.04-2.42c7.1-.99 14.24-1.46 21.4-1.43v1.95a23.63 23.63 0 018.6-2.13.96.96 0 01.81.42c.36.45 2.55 3.2 2.8 3.59a29.9 29.9 0 011.94 3.2c-.2.7-.51 1.36-.92 1.96z" fill="#FDC305"/><path d="M69.75 33.32c.5.64.93 1.2 1.05 1.38a29.9 29.9 0 011.94 3.2c-.2.67-.51 1.32-.91 1.9-.47.45-1.43.76-1.59-.62-.15-1.39-.22-2.3-.22-2.3s-2.04-3.66-2.8-3.7c-.76-.05-6.16 3.7-7.59 5.33-1.23 1.37-1.48 1.27-1.48 3.7 0 1.6.18 7.08.14 11.97 1.91.2 4.72.74 5.57 2 0 0-.3-7.65 8.25-3.65 0 0 .3-10.43 12.12-7.76a46.27 46.27 0 00-14.48-11.45zm-11.13-2.47c.04-5.9-.45-11.8-1.48-17.62 0 0-.16-1.39-.92-.26a15.3 15.3 0 00-1.27 4.27c-4.52-.3-9.05-.17-13.55.36-.86-2.93-2.34-4.26-3.05-3.91-.71.35-.8 3.5-.8 3.5l-.34 15.09a149.6 149.6 0 0121.4-1.43z" fill="#F06351"/><path d="M58 60.45c.14-1.14.22-2.65.26-4.32l-8.61 2.31c-2.71.8-5.46 1.43-8.25 1.89l1.18 5.33c0 .11 0 .23.07.35a34.06 34.06 0 005.03 2.72 44.75 44.75 0 007.27-4.4v.06A16.2 16.2 0 0058 60.45z" fill="#E55645"/><path d="M43.9 27.51c-.06-.1 1.05.73 1.49.99.43.25.64.44.64.62 0 .19-.27.37-.65.37s-.98-.13-1.06-.28c-.09-.15.63 0 1 0h.3a8.57 8.57 0 01-1.72-1.7zm7.92.12s-1.05 1.37-1.15 1.43c-.1.06-.18.36.2.3a8.5 8.5 0 001.3-.29c.1-.06.06-.21-.14-.2-.2.03-.71.06-1.05.13l.9-1.36s.03-.13-.06 0zm-3.32 6.52c.5-.22.9-.6 1.16-1.07.3-.7 0-.97-.47-1.07-.64-.11-1.3.01-1.85.37-.41.39-.36.77 0 1.06.36.28.75.52 1.16.7z"/><path d="M48.12 35.49c-.12.24-.28.46-.48.64-.3.24-.67.38-1.06.4a2.29 2.29 0 01-1.63-.47c-.21-.12-.4-.28-.56-.48-.1-.11-.23-.2-.38-.26 0 0 .8 4.38 2.72 5.08 1.92.7 2.28-.8 2.33-1.21a6.04 6.04 0 00-.86-3.46c0-.32-.02-.1-.08-.24z" fill="#F06351"/><path d="M46.33 36.7a3.68 3.68 0 01-2.49-1.52.16.16 0 010-.21.15.15 0 01.17-.04l.04.04a3.42 3.42 0 002.23 1.4 2.22 2.22 0 001.74-1.07l.15-.2.1.23s.4.8 1.06.85c.65.04 1.12-.45 1.72-1.37a.15.15 0 01.21-.05.15.15 0 01.04.22c-.7 1.04-1.37 1.54-2 1.5a1.63 1.63 0 01-1.18-.78 2.4 2.4 0 01-1.8 1z"/><path d="M48.4 51.05a3.98 3.98 0 003.96-4c0-2.2-1.77-4-3.96-4a3.98 3.98 0 00-3.96 4c0 2.21 1.77 4 3.96 4z" fill="#FDC305"/><path d="M53.65 43.8l-3.3 1.4 1.2-6-7.92 10.4 3.31-1.4-1.22 6.02 7.93-10.42zm-7.8 4.09l4.39-5.77-.86 4.26 2.11-.87-4.42 5.78.85-4.27-2.08.87zm-1.49-1.57c.66 0 1.19-.54 1.19-1.2a1.19 1.19 0 10-2.37 0c0 .66.53 1.2 1.18 1.2zm6.89 4.33c.46 0 .84-.38.84-.84a.84.84 0 00-.84-.85.84.84 0 00-.83.85c0 .46.37.84.83.84zm1.02-2.32a.37.37 0 000-.75c-.2 0-.37.17-.37.38 0 .2.16.37.37.37z" fill="#111"/><path d="M58.57 32.78a61.01 61.01 0 00-5.38 5.55 33.8 33.8 0 01-5.62 5.23c-.23-.57-1.72-1.62-1.72-1.62s-3.32-2.3-5.5-4.1a33.84 33.84 0 01-3.31-3.2l-2.12-.11a23.93 23.93 0 0012.69 9.42c.9-.15 3.46-2 5.38-3.5a61.19 61.19 0 006.34-6.3c.52-.63.93-1.35 1.2-2.13-1.2.4-1.96.76-1.96.76zm-21.09 7.29s-4.03-1.53-5.5-1.95a3.94 3.94 0 00-4.23.67 5.4 5.4 0 00-1.83 4.1c.22.5.4 1.02.5 1.55.06.51-1.26.46-2.1.46-.85 0-.98-1.53-.31-3.34a24.41 24.41 0 011.92-3.98C20.17 40.6 10.08 47.6 10.08 47.6a48 48 0 018.65.25c5.55.57 5.29 4.98 5.29 4.98 1.95-.54 3.94-.94 5.95-1.18 2.24-.15 2.4 2.26 2.4 2.26l.56 4.11c.85-.92 1.78-1.77 2.8-2.51a6.37 6.37 0 014.63-1.39l-2.88-14.05z" fill="#F06351"/></svg>