<svg width="25" height="31" fill="none" xmlns="http://www.w3.org/2000/svg"><path fill-rule="evenodd" clip-rule="evenodd" d="M18.617.087a1 1 0 0 1 1.09.216c.909.909 2.097 2.878 3.059 5.918.971 3.07 1.734 7.298 1.734 12.79a1 1 0 0 1-1 1H20v9a1 1 0 1 1-2 0v-28a1 1 0 0 1 .617-.924ZM20 18.01h2.491c-.086-4.817-.786-8.513-1.632-11.186-.278-.88-.57-1.643-.859-2.296V18.01ZM6 .01a1 1 0 0 1 1 1v28a1 1 0 1 1-2 0v-28a1 1 0 0 1 1-1Z" fill="#fff"/><path fill-rule="evenodd" clip-rule="evenodd" d="M1.5.01a1 1 0 0 1 1 1v5.5c0 .557.192 1.316.7 1.917.48.566 1.314 1.084 2.8 1.084a1 1 0 1 1 0 2c-2.015 0-3.43-.733-4.326-1.792A5.068 5.068 0 0 1 .5 6.51v-5.5a1 1 0 0 1 1-1Z" fill="#fff"/><path fill-rule="evenodd" clip-rule="evenodd" d="M10.5.01a1 1 0 0 0-1 1v5.5a3.07 3.07 0 0 1-.7 1.917c-.48.566-1.315 1.084-2.8 1.084a1 1 0 0 0 0 2c2.014 0 3.43-.733 4.326-1.792A5.068 5.068 0 0 0 11.5 6.51v-5.5a1 1 0 0 0-1-1Z" fill="#fff"/></svg>