<?xml version="1.0" encoding="utf-8"?>
<svg aria-label="hidden" version="1.1" xmlns="http://www.w3.org/2000/svg" xmlns:xlink="http://www.w3.org/1999/xlink">
  <symbol id="email" viewBox="0 0 20 14">
    <path fill-rule="evenodd" clip-rule="evenodd" d="M18 0V0.299988V1.3V2.79999L9.00004 9.79999L1.21593e-05 2.79999V1.3V0.299988V0H18ZM0 13.3V5.29999H1.3V12H17V5.29999H18.3V13.3L18 13.3H1.21593e-05V13.3H0ZM16.7 2.16418L9.00003 8.15307L1.30001 2.16418V1.59999H16.7V2.16418Z" />
  </symbol>
  <symbol id="phone" viewBox="0 0 20 20">
    <path d="M17.9 9.8H9.4V11h8.5l-2.1 2 .9 1 3.1-3.1a.8.8 0 0 0 0-1l-3.1-3-.9.8 2.1 2ZM8.1 19.8v-6.2a.7.7 0 0 0-.6-.6H3.1a1.2 1.2 0 0 0 1.2 1.2h2.5v5H3.1a1.8 1.8 0 0 1-1.9-1.7v-14a1.8 1.8 0 0 1 1.7-1.9h3.9v5H4.4a1.2 1.2 0 0 0-1.2 1.2h4.4a.6.6 0 0 0 .6-.6V1a.9.9 0 0 0-.7-.6H3.1a3 3 0 0 0-3.1 3v13.9a3 3 0 0 0 2.9 3h4.6a.5.5 0 0 0 .6-.4Z" />
  </symbol>
</svg>
