<svg width="102" height="19" fill="none" xmlns="http://www.w3.org/2000/svg"><g clip-path="url(#a)" fill="#111"><path d="M1.4 17.3A6.9 6.9 0 0 1 .2 13V6.7a7 7 0 0 1 1.1-4.4c1-1 2.3-1.5 4.2-1.5 2 0 3.3.5 4 1.3 1 1 1.3 2.4 1.3 3.8v1.5h-4V5.7C7 5 6.9 4.6 6.7 4c0-.2-.2-.4-.4-.5l-.7-.1c-.5 0-1 .2-1 .5-.3.6-.3 1.2-.3 1.7V14c0 .5 0 1 .3 1.6.2.4.6.5 1.1.5.6 0 .9-.1 1-.5.2-.5.3-1 .3-1.6V12h3.9v1.6c0 1.3-.4 2.7-1.2 3.8-.8 1-2.2 1.4-4 1.4-2 0-3.4-.6-4.2-1.6ZM15.4 1H20l3.3 17.6h-3.6l-.6-3.7h-2.6l-.7 3.7H12L15.4 1Zm3.3 11.6-1-6.9-1 6.9h2ZM26 4h-2.7V1h9.4V4H30v14.7h-4V4ZM40 1h6.9V3h-4.5v5.8H46v1.7h-3.6V17h4.5v1.8h-7V1ZM49 1h1.7l5.1 11.7V1h2v17.6h-1.5L51 6.6v12h-2.2V1ZM60.2 1h7V3h-4.5v5.8h3.6v1.7h-3.6V17h4.5v1.8h-7V1ZM69.2 1H73c1.4 0 2.8.3 4 1.1.9.7 1.3 2 1.3 3.6 0 2.2-.7 3.6-2.2 4l2.5 8.8H76l-2.3-8.2h-2v8.2h-2.5V1Zm3.5 7.6c.8 0 1.6-.2 2.3-.6.5-.4.7-1.2.7-2.3 0-.6 0-1.2-.2-1.7a2 2 0 0 0-.9-1c-.5-.2-1.1-.3-1.7-.3h-1.1v5.8h1ZM81.3 17.3a7.6 7.6 0 0 1-1-4.5V7c-.1-1.2 0-2.3.3-3.3a4 4 0 0 1 1.5-2c.9-.6 2-.8 3-.7 1.6 0 2.8.3 3.5 1.2A5.8 5.8 0 0 1 89.7 6v.7h-2.4V6l-.1-2c0-.3-.3-.7-.7-1-.4-.2-1-.3-1.5-.3s-1 .1-1.5.5a1.7 1.7 0 0 0-.7 1.2 14 14 0 0 0-.1 2v6.6c0 1 0 2 .4 3 .4.6 1 .8 2 .8a2 2 0 0 0 1.8-1c.5-1 .6-2 .6-3v-1.2h-2.3V9.9h4.6v8.7h-1.6l-.2-2c-.2.6-.7 1.2-1.3 1.6-.5.4-1.3.6-2 .6a4 4 0 0 1-3.4-1.5ZM94.8 12.4 91 1.1h2.3l2.8 8.5L98.8 1h2.4l-4 11.3v6.2H95v-6.2Z"/></g><defs><clipPath id="a"><path fill="#fff" transform="translate(.2 .8)" d="M0 0h101v18H0z"/></clipPath></defs></svg>
