<?xml version="1.0" encoding="utf-8"?>
<svg aria-label="hidden" version="1.1" xmlns="http://www.w3.org/2000/svg" xmlns:xlink="http://www.w3.org/1999/xlink">
  <symbol id="vk" viewBox="0 0 23 16">
    <path d="M.07 4c0-.63.42-.96 1.27-1.01L4.6 3c.22 0 .37.09.44.27.33.91.7 1.7 1.13 2.37.41.66.95 1.43 1.63 2.3a.3.3 0 0 0 .28.16c.1 0 .18-.04.24-.13l.07-.2.02-3.17c0-.21-.06-.36-.19-.43A1.9 1.9 0 0 0 7.53 4c-.26-.04-.4-.17-.4-.4 0-.05.02-.09.03-.11.3-.8 1.18-1.19 2.63-1.19L11 2.29c.56 0 1.02.12 1.38.35.37.23.55.6.55 1.1v4.15c.1.06.2.09.28.09.22 0 .41-.11.57-.33 1.6-1.88 2.48-3.13 2.6-3.77a1.29 1.29 0 0 1 .55-.57c.24-.13.44-.22.62-.27a.5.5 0 0 1 .2-.03h3.39l.21.01c.3 0 .52.12.68.35.06.07.1.15.12.24a1.57 1.57 0 0 1 .06.4v.13c-.1.5-.36 1.03-.78 1.6-.41.57-.94 1.18-1.59 1.84-.64.66-1.04 1.09-1.2 1.3-.13.14-.2.28-.2.4 0 .1.06.2.18.33l3.2 3.36c.17.2.26.41.26.64 0 .28-.13.52-.4.7-.26.18-.57.28-.94.3l-.37.03h-3.33a.8.8 0 0 0-.08 0 .8.8 0 0 1-.1.02c-.31 0-.61-.12-.89-.35a182 182 0 0 1-2.06-2.16 1.1 1.1 0 0 0-.3-.24 25.63 25.63 0 0 0-.44 1.63l-.07.31c-.14.43-.45.68-.92.77l-.3.02H9.74a5.92 5.92 0 0 1-3.62-1.4 14.5 14.5 0 0 1-3.25-3.59A32.9 32.9 0 0 1 .18 4.52C.11 4.36.07 4.2.07 4Zm13.15 4.73c-.3 0-.58-.07-.83-.21-.25-.14-.37-.33-.37-.58v-4.2c0-.25-.07-.42-.22-.52-.15-.1-.4-.16-.77-.16L9.8 3.1c-.63 0-1.1.09-1.43.27.65.26.97.67.97 1.24v3.22c-.03.3-.18.56-.44.76-.26.2-.55.3-.88.3-.43 0-.77-.17-1-.53a18.47 18.47 0 0 1-2.54-4.1l-.2-.47-2.9-.02c-.2 0-.3.01-.33.03-.02.02-.03.07-.03.16 0 .1.02.22.04.34l.46 1.03a23.46 23.46 0 0 0 4 6.25c1.44 1.53 2.85 2.29 4.23 2.29h2.2c.08 0 .15-.02.19-.07a.52.52 0 0 0 .1-.24l.05-.18.42-1.61c.11-.22.22-.37.3-.44.16-.14.35-.2.57-.2.35 0 .71.17 1.08.53l1.86 1.97c.11.16.24.24.37.24h3.6c.45 0 .67-.1.67-.28a.31.31 0 0 0-.07-.18l-3.17-3.3a1.17 1.17 0 0 1-.38-.83c0-.3.12-.57.35-.84.2-.25.56-.65 1.11-1.22a28.2 28.2 0 0 0 1.43-1.59c.41-.5.68-.94.81-1.34l.07-.24a.24.24 0 0 1-.02-.12l-.02-.14h-3.44c-.22.07-.4.18-.53.33l-.13.35c-.36.84-1.32 2.14-2.86 3.9-.31.24-.67.36-1.08.36Z" />
  </symbol>
  <symbol id="instagram" viewBox="0 0 20 20">
    <path d="M9.98.08c1.67 0 3.03.02 4.08.06.9.04 1.7.2 2.4.47a4.98 4.98 0 0 1 2.9 2.89c.27.7.43 1.5.46 2.4.04 1.05.06 2.41.06 4.08s-.02 3.03-.06 4.08c-.03.9-.2 1.7-.46 2.4a4.99 4.99 0 0 1-2.9 2.9c-.7.27-1.5.43-2.4.46-1.05.04-2.41.06-4.08.06s-3.03-.02-4.08-.06a7.5 7.5 0 0 1-2.4-.46 4.98 4.98 0 0 1-2.9-2.9 7.5 7.5 0 0 1-.46-2.4C.1 13.01.08 11.65.08 9.98S.1 6.95.14 5.9c.04-.9.2-1.7.47-2.4A4.98 4.98 0 0 1 3.5.6 7.5 7.5 0 0 1 5.9.15C6.95.1 8.3.08 9.98.08Zm0 1.29c-1.73 0-3.14.02-4.24.06-.7.02-1.35.15-1.95.37-.94.39-1.6 1.05-2 1.99-.21.6-.34 1.25-.36 1.95-.04 1.1-.06 2.5-.06 4.24 0 1.73.02 3.14.06 4.24.02.7.15 1.35.37 1.95.39.94 1.05 1.6 1.99 2 .6.22 1.25.34 1.95.37 1.1.03 2.5.05 4.24.05 1.73 0 3.14-.02 4.24-.05.7-.03 1.35-.15 1.95-.38.94-.39 1.6-1.05 2-1.99.22-.6.34-1.25.37-1.95.03-1.1.05-2.5.05-4.24 0-1.73-.02-3.14-.05-4.24a6.27 6.27 0 0 0-.38-1.95 3.57 3.57 0 0 0-1.99-2 6.27 6.27 0 0 0-1.95-.36c-1.1-.04-2.5-.06-4.24-.06Zm0 12.58c1.1 0 2.03-.4 2.8-1.17a3.82 3.82 0 0 0 1.17-2.8c0-1.1-.4-2.03-1.17-2.8a3.82 3.82 0 0 0-2.8-1.16c-1.1 0-2.03.38-2.8 1.16a3.82 3.82 0 0 0-1.16 2.8c0 1.1.38 2.03 1.16 2.8.77.78 1.7 1.17 2.8 1.17Zm0-9.05c1.4 0 2.6.5 3.6 1.49a4.9 4.9 0 0 1 1.48 3.59c0 1.4-.5 2.6-1.49 3.6a4.9 4.9 0 0 1-3.59 1.48c-1.4 0-2.6-.5-3.6-1.49A4.9 4.9 0 0 1 4.9 9.98c0-1.4.5-2.6 1.49-3.6A4.9 4.9 0 0 1 9.98 4.9Zm6.48-.2a1.19 1.19 0 0 1-1.21 1.17c-.32 0-.6-.1-.83-.33-.22-.23-.34-.5-.34-.83a1.19 1.19 0 0 1 1.17-1.21c.33 0 .61.12.85.36s.36.52.36.85Z" />
  </symbol>
  <symbol id="facebook" viewBox="0 0 12 21">
    <path fill-rule="evenodd" clip-rule="evenodd" d="M4.7 2.5C5.7 1.5 7 1 8.3 1h2.8c.3 0 .5.2.5.5v3.6c0 .3-.2.6-.5.6H8v2.5h3a.6.6 0 0 1 .6.7l-1 3.6c0 .2-.2.4-.5.4H8v6.6c0 .3-.2.6-.5.6H3.7a.5.5 0 0 1-.5-.6V13H1a.5.5 0 0 1-.6-.6V8.7c0-.3.3-.5.6-.5h2.2V6a5 5 0 0 1 1.5-3.5ZM8.3 2a4 4 0 0 0-2.8 1.1C4.7 4 4.3 5 4.3 6v2.7c0 .3-.3.6-.6.6H1.5v2.5h2.2c.3 0 .6.2.6.5V19h2.5v-6.7c0-.3.3-.5.6-.5h2.3l.7-2.5h-3a.6.6 0 0 1-.6-.6V6c0-.4.2-.7.5-1 .3-.3.6-.4 1-.4h2.2V2H8.3Z" />
  </symbol>
</svg>
