<?xml version="1.0" encoding="utf-8"?>
<svg aria-label="hidden" version="1.1" xmlns="http://www.w3.org/2000/svg" xmlns:xlink="http://www.w3.org/1999/xlink">
  <symbol id="cat-sit" viewBox="0 0 36 50">
    <path
      d="M28.2.01H28c-.32.19-.59.47-.74.82a8.03 8.03 0 0 0-.67 1.76.84.84 0 0 1-.76.69 3.77 3.77 0 0 0-2.69 1.95c-.37.66-.69 1.35-.95 2.06-.73 1.9-1.29 3.85-1.98 5.77-.32.87-.34.87-1.32.87-1.16 0-1.08-.18-1.1 1.1 0 .41.13.62.56.6.13 0 .33-.07.39.1.05.18-.13.26-.23.36a4.63 4.63 0 0 1-2.23 1.26c-.97.26-1.97.47-2.92.79-2.45.82-4.7 1.96-6.46 3.9a14.44 14.44 0 0 0-2.44 4.04c-1.89 4.46-2.8 9.15-3.51 13.88a97.06 97.06 0 0 0-.75 6.7c-.1 1.1-.2 2.23-.2 3.35h17.14c.03-.23-.01-.46-.12-.66a2.58 2.58 0 0 0-1.97-1.58c-.36-.08-.4-.2-.18-.48.36-.48.64-1.02.82-1.6.84-2.47 1.16-5.06 1.57-7.62.23-1.96.83-3.85 1.77-5.59a11.13 11.13 0 0 1 2.87-3.28c.43-.32.45-.32.52.23.05.36.06.74.09 1.11.15 2.44.12 4.88-.1 7.31-.2 1.88-.22 3.78-.07 5.67.2 2.2.59 4.36 1.16 6.49h6.84a2.8 2.8 0 0 0-2.18-2.29c-.64-.1-1.3-.07-1.93.1-.31.08-.44 0-.46-.33-.22-2.73-.04-5.47.51-8.15a91.8 91.8 0 0 0 1.57-9.38c.14-1.27.54-2.5 1.18-3.6.6-1.1 1.14-2.23 1.74-3.33a3.03 3.03 0 0 0 .22-2.67c-.14-.37-.27-.74-.44-1.1-.52-1-1.03-2-1.5-3-.26-.52-.2-.58.36-.6.84 0 .84 0 .86-.85v-.34c0-.35-.14-.55-.52-.51h-.78c-.36 0-.46-.15-.37-.52a3.22 3.22 0 0 1 2.64-2.28 11.3 11.3 0 0 1 3.4.22.51.51 0 0 0 .65-.33 40 40 0 0 1 .66-1.54.52.52 0 0 0-.05-.6c-1.65-2.09-3.43-4.04-5.87-5.3a.77.77 0 0 1-.45-.57c-.14-.74-.35-1.45-.65-2.14A1.8 1.8 0 0 0 28.2 0Z"
      fill="#000" />
  </symbol>

  <symbol id="cat-walk" viewBox="0 0 67 28">
    <path
      d="M61.55 2.91A7.6 7.6 0 0 1 63.8.61c.5-.35.8-.35 1.1.3.4.95.75 1.95.45 3a1.15 1.15 0 0 0 .2 1.05c.3.4.55.8.8 1.15a3.14 3.14 0 0 1 .45 3.1c-.18.5-.22 1.04-.1 1.55.1.5.1 1 0 1.5a1.88 1.88 0 0 1-1.35 1.6 2.6 2.6 0 0 0-1.6 1 .53.53 0 0 1-.45.25c-.6.1-2.1-1.25-2.1-1.85v-.3c.05-1.8-.05-1.95-1.7-2.7a2.2 2.2 0 0 1-.9-.6c-.3-.4-.7-.35-1.15-.2-.45.15-.7.45-.65.95.15 1.21.2 2.43.15 3.65 0 .14.04.28.1.4 1.55 2.25 2.15 4.9 2.9 7.45.6 1.95 1.7 3 3.7 3.15.32.03.64.08.95.15a2.08 2.08 0 0 1 1.7 1.6c.35 1.05.15 1.3-.9 1.3h-3.25c-.42.02-.83-.12-1.15-.4a5.86 5.86 0 0 0-1.7-1 3.63 3.63 0 0 1-1.7-1.3 14.3 14.3 0 0 0-2-2.25c-1.4-1.45-2.9-2.85-4.2-4.35a5.69 5.69 0 0 1-1.6-3.8c0-.45-.1-.65-.6-.45a.96.96 0 0 1-.5.15c-1.4 0-2.1.85-2.6 2.1-.45 1.05-1.05 2.05-1.6 3.1a5.2 5.2 0 0 0-.5 2.1c0 1.2.3 1.6 1.4 2 .7.25 1.35.5 1.7 1.2.4.8.3 1-.55 1.05h-3.4a.94.94 0 0 1-.95-.55l-.9-1.5a3.02 3.02 0 0 1-.35-2.7c.22-.87.23-1.77.05-2.65a4.2 4.2 0 0 1 .85-3.5c.3-.35.3-.5-.2-.6a25.03 25.03 0 0 1-5.95-2.1c-1.6-.6-1.9-.5-2.35 1.15-.4 1.4-.8 2.8-1.1 4.25-.35 1.6.05 3.1.55 4.6.2.6.8.55 1.25.7 1 .3 1.85.7 2.25 1.75.35.8.3.9-.55.9-.85 0-1.7-.05-2.6 0-.76.01-1.5-.23-2.1-.7-2.4-1.6-3.1-4.05-3.3-6.7-.1-1.65-1-2.95-2.05-4.2-.2-.25-.4-.35-.7-.15-1.07.6-2.2 1.1-3.35 1.5a13.35 13.35 0 0 0-6.1 4.4 5.31 5.31 0 0 0-1.1 2.55c-.15.9.1 1.3 1 1.55s1.35.75 1.45 1.7c.05.4-.1.6-.5.6h-4.05a.83.83 0 0 1-.65-.4 4.28 4.28 0 0 1-.95-2.75 25.3 25.3 0 0 1 .45-5.15 3.15 3.15 0 0 1 1.7-2.4c2.95-1.4 4.5-4.05 5.9-6.8.3-.55.05-.65-.45-.6-1.4.2-2.73.75-3.85 1.6a35.3 35.3 0 0 0-4.15 3.55 8.34 8.34 0 0 1-5.15 2.45c-3.65.2-5.35-1.85-5.2-5.15.03-1.12.46-2.2 1.2-3.05a2.13 2.13 0 0 1 2.25-.75c.75.2.95.6.65 1.35-.15.3-.35.55-.5.85-.22.3-.38.64-.5 1-.55 1.5.2 2.55 1.75 2.7 1.65.15 3-.55 4.25-1.55 1.5-1.2 2.85-2.6 4-4.15a10.4 10.4 0 0 1 7.2-4.05c1.15-.15 2.15-.65 3.25-.95 2.06-.63 4.2-.93 6.35-.9a6.5 6.5 0 0 0 2.9-.55c2.45-1 5-1 7.55-.5 2 .4 4 .9 5.95 1.4 1.16.22 2.35.18 3.5-.1 2.2-.56 4.44-.9 6.7-1a9.08 9.08 0 0 1 4.3.85c1 .45 1 .45.75 1.4Z"
      fill="#000" />
  </symbol>

  <symbol id="adv-leaf" viewBox="0 0 30 32">
    <path
      d="M27.84 2.77a.95.95 0 0 0-.9-.77h-.01c-4.94.03-16.95.92-21.8 8.38-2.51 3.88-2.73 8.91-.64 14.96l.07.13a25.93 25.93 0 0 0-1.04 3.32c-.11.54.21 1.07.72 1.19l.2.02c.43 0 .81-.32.9-.79.03-.1 2.42-10.37 10.86-16.38.43-.3.55-.93.26-1.38a.9.9 0 0 0-1.3-.28c-4.79 3.4-7.74 8-9.47 11.65-1.24-4.57-.92-8.37.99-11.3 3.74-5.76 12.62-7.15 17.98-7.45-1.16 1.8-2.41 5.1-2.41 10.93 0 3.12-.83 5.52-2.47 7.14-2.62 2.6-6.88 2.83-10 2.58-.51-.04-.96.38-1 .93-.04.55.35 1.03.86 1.07.63.05 1.3.08 1.98.08 3.18 0 6.87-.66 9.43-3.2 2.04-2 3.07-4.9 3.07-8.6 0-9.1 3.22-11.1 3.23-11.1.4-.21.6-.68.5-1.13Z"
      fill="#fff" />
  </symbol>

  <symbol id="adv-tube" viewBox="0 0 29 31">
    <g fill="#fff">
      <path
        d="M20.78 18.47c-1.71 0-3.1 1.48-3.1 3.3 0 1.83 1.4 3.3 3.1 3.3 1.7 0 3.08-1.47 3.08-3.3 0-1.82-1.38-3.3-3.08-3.3Zm0 5.02c-.89 0-1.6-.77-1.6-1.71 0-.95.71-1.72 1.6-1.72.88 0 1.6.77 1.6 1.72 0 .94-.72 1.7-1.6 1.7ZM11.6-.01c-1.75 0-3.18 1.52-3.18 3.4 0 1.89 1.43 3.41 3.19 3.41s3.18-1.52 3.18-3.4c0-1.89-1.42-3.41-3.18-3.41Zm0 5.48c-1.06 0-1.93-.93-1.93-2.07 0-1.15.87-2.07 1.94-2.07 1.07 0 1.93.92 1.93 2.07 0 1.14-.86 2.07-1.93 2.07ZM8.23 17.61c-1.3 0-2.34 1.12-2.34 2.5 0 1.39 1.04 2.5 2.34 2.5 1.3 0 2.34-1.11 2.34-2.5 0-1.38-1.05-2.5-2.34-2.5ZM8 19.5c-.46 0 1.16 1.1 1.16.61 0-.49-1.62.39-1.16.39.46 0 1.06-.88 1.06-.39 0 .5-.6-.61-1.06-.61ZM18.5 9.76s3.04-.84 6.18 1.5c.9.76 1.76 1.33 1.15 2.12-.34.34-.64.66-1.72-.53a6.92 6.92 0 0 0-5.61-1.44c-1.13.24-1.96.55-3.56 2.15a8.27 8.27 0 0 1-6.5 2.5c-2.52-.24-3.84-1.27-5.24-2.55-.3-.42-.3-.87-.12-1.13.17-.26.83-.52 1.2-.13.37.4 2.1 1.97 3.82 2.07 1.72.1 3.44.21 5.74-1.96 2.3-2.18 3.46-2.34 4.66-2.6Z" />
      <path
        d="M28.65 26.82V8.16c0-.58-.38-.65-.53-.66h-.5c-.5 0-.54.56-.54.74V26.84a2.68 2.68 0 0 1-.82 1.89c-.81.7-1.62.6-1.62.6s-20.18 0-20.66-.03a2.3 2.3 0 0 1-1.6-1c-.57-.8-.46-1.85-.46-1.85V8.3c0-.83-.67-.8-.67-.8h-.3c-.54 0-.6.58-.6.77v18.54c0 1.33.46 2.4 1.55 3.33 1.1.94 2.38.86 2.38.86h20.58c.86 0 1.98-.42 2.91-1.56.93-1.14.88-2.63.88-2.63Z" />
      <path
        d="M26.26 28.73c-.56.47-1.11.58-1.4.6h-.22s-17.81 0-20.36-.02h-.3a2.33 2.33 0 0 1-1-.4 2.54 2.54 0 0 1-.96-1.42v-.02a3.22 3.22 0 0 1-.1-.65V8.3a1.44 1.44 0 0 0 0-.03c-.02-.8-.67-.78-.67-.78h-.3c-.54 0-.6.6-.6.78v18.54c0 .23.02.45.05.66a3.88 3.88 0 0 0 .66 1.75c.22.32.5.63.84.92A3.61 3.61 0 0 0 3.9 31c.24.03.39.02.39.02H24.86a3.68 3.68 0 0 0 2.51-1.12 4.08 4.08 0 0 0 1.27-2.99V8.16c0-.58-.37-.65-.52-.66h-.5c-.44 0-.52.43-.54.66v18.72a2.6 2.6 0 0 1-.55 1.55l-.27.3Zm1.86-1.9.53-.01c-.18 0-.36 0-.53.02Z" />
    </g>
  </symbol>

  <symbol id="adv-eat" viewBox="0 0 25 30">
    <g fill="#fff">
      <path
        d="M18.62.08a1 1 0 0 1 1.09.21c.9.91 2.1 2.88 3.06 5.92A42.6 42.6 0 0 1 24.5 19a1 1 0 0 1-1 1H20v9a1 1 0 1 1-2 0V1a1 1 0 0 1 .62-.92ZM20 18h2.5a39.62 39.62 0 0 0-1.64-11.19 22.4 22.4 0 0 0-.86-2.3V18ZM6 0a1 1 0 0 1 1 1v28a1 1 0 1 1-2 0V1a1 1 0 0 1 1-1Z" />
      <path
        d="M1.5 0a1 1 0 0 1 1 1v5.5c0 .56.2 1.32.7 1.92.48.56 1.31 1.08 2.8 1.08a1 1 0 1 1 0 2 5.41 5.41 0 0 1-4.33-1.8A5.07 5.07 0 0 1 .5 6.5V1a1 1 0 0 1 1-1Z" />
      <path
        d="M10.5 0a1 1 0 0 0-1 1v5.5c0 .56-.2 1.32-.7 1.92C8.32 8.98 7.49 9.5 6 9.5a1 1 0 0 0 0 2c2.01 0 3.43-.73 4.33-1.8a5.07 5.07 0 0 0 1.17-3.2V1a1 1 0 0 0-1-1Z" />
    </g>
  </symbol>

  <symbol id="adv-alarm" viewBox="0 0 25 30">
    <g fill="#fff">
      <path
        d="M19.52 10.27a1.09 1.09 0 1 1-2.17 0 1.09 1.09 0 0 1 2.17 0ZM8.65 10.27a1.09 1.09 0 1 1-2.17 0 1.09 1.09 0 0 1 2.17 0ZM8.65 23.29a1.09 1.09 0 1 1-2.17 0 1.09 1.09 0 0 1 2.17 0ZM14.09 25.46a1.09 1.09 0 1 1-2.18 0 1.09 1.09 0 0 1 2.18 0ZM5.39 16.71a1.09 1.09 0 1 1-2.17 0 1.09 1.09 0 0 1 2.17 0ZM22.79 16.71a1.09 1.09 0 1 1-2.18 0 1.09 1.09 0 0 1 2.18 0ZM19.52 23.29a1.09 1.09 0 1 1-2.17 0 1.09 1.09 0 0 1 2.17 0Z" />
      <path fill-rule="evenodd" clip-rule="evenodd"
        d="M18.15 28c.41-.2.9-.13 1.22.2l1.83 1.87c.26.27.7.27.97 0a.68.68 0 0 0 0-.95l-1.35-1.4c-.43-.44-.37-1.15.1-1.55a12.75 12.75 0 0 0 4.31-9.62c0-6.97-5.47-12.61-12.23-12.61C6.24 3.94.77 9.58.77 16.55c0 3.82 1.64 7.23 4.23 9.55.46.4.52 1.1.1 1.54l-1.44 1.48a.68.68 0 1 0 .98.95l1.88-1.93c.31-.33.81-.4 1.22-.2a11.88 11.88 0 0 0 10.41.06ZM13 27.76c6 0 10.87-5.02 10.87-11.2C23.87 10.35 19 5.33 13 5.33c-6 0-10.87 5.02-10.87 11.21 0 6.2 4.86 11.21 10.87 11.21Zm-.76-11.52V8.88a.78.78 0 0 1 1.56 0v8.18a.8.8 0 0 1-.8.8.76.76 0 0 1-.76-.76V16.24Z" />
      <path fill-rule="evenodd" clip-rule="evenodd"
        d="M5.23 1.69c0-.42.34-.75.75-.75h14a.75.75 0 0 1 0 1.5h-6.25v1.52c6.42.39 11.5 5.88 11.5 12.6a12.79 12.79 0 0 1-4.32 9.61 1.12 1.12 0 0 0-.38.9 1 1 0 0 0 .29.65l1.35 1.4a.68.68 0 0 1-.97.95l-1.83-1.88a1.01 1.01 0 0 0-.54-.29 1.1 1.1 0 0 0-.68.1 11.92 11.92 0 0 1-10.4-.06 1.1 1.1 0 0 0-.77-.07 1 1 0 0 0-.46.27l-1.88 1.93a.68.68 0 1 1-.98-.95l1.43-1.48a1 1 0 0 0 .29-.61A1.1 1.1 0 0 0 5 26.1a12.79 12.79 0 0 1-4.24-9.55c0-6.7 5.07-12.18 11.47-12.59V2.44H5.98a.75.75 0 0 1-.75-.75Zm.7 23.38a11.36 11.36 0 0 1-3.8-8.51c0-4.8 2.92-8.9 7.03-10.5 1.2-.47 2.49-.72 3.84-.72h.02c1.37 0 2.68.26 3.88.74a11.21 11.21 0 0 1 6.97 10.47A11.36 11.36 0 0 1 20 25.13a10.84 10.84 0 0 1-3.47 2.03 10.56 10.56 0 0 1-10.6-2.1Zm7.1-16.97c.42 0 .77.35.77.78v8.18a.8.8 0 0 1-.8.8.76.76 0 0 1-.76-.76V8.88c0-.43.34-.77.76-.78h.02Z" />
    </g>
  </symbol>

  <symbol id="vk" viewBox="0 0 24 13">
    <path
      d="M.95 1.8c0-.62.42-.95 1.27-1l3.26.02c.22 0 .36.09.44.27.33.92.7 1.7 1.12 2.37.42.66.96 1.43 1.63 2.3a.3.3 0 0 0 .29.16c.1 0 .18-.04.24-.13l.07-.2.02-3.16c0-.22-.06-.37-.19-.44a1.9 1.9 0 0 0-.69-.17c-.26-.03-.4-.17-.4-.4 0-.05.02-.08.03-.1.3-.8 1.18-1.2 2.63-1.2L11.89.1c.56 0 1.02.12 1.38.35.37.23.55.6.55 1.1V5.7c.1.06.2.1.28.1.22 0 .41-.12.57-.34 1.6-1.87 2.47-3.13 2.6-3.76a1.29 1.29 0 0 1 .55-.57c.24-.14.44-.23.62-.28a.5.5 0 0 1 .2-.03h3.39l.21.02c.3 0 .52.11.68.34.06.08.1.16.12.24a1.57 1.57 0 0 1 .06.4v.13a4.2 4.2 0 0 1-.78 1.6c-.42.57-.94 1.18-1.59 1.84-.64.66-1.04 1.1-1.2 1.3-.13.14-.2.28-.2.4 0 .1.06.2.18.33l3.2 3.37c.17.19.26.4.26.64 0 .28-.14.5-.4.69-.26.18-.57.29-.94.31l-.37.02h-3.33a.8.8 0 0 0-.09 0 .8.8 0 0 1-.08.02c-.32 0-.62-.12-.9-.35L14.8 9.96a1.1 1.1 0 0 0-.3-.24 25.62 25.62 0 0 0-.44 1.63l-.07.31c-.14.43-.45.69-.92.77l-.3.02h-2.15A5.92 5.92 0 0 1 7 11.06a14.5 14.5 0 0 1-3.25-3.6 32.9 32.9 0 0 1-2.7-5.12C1 2.18.96 2 .96 1.8ZM14.1 6.55c-.3 0-.58-.07-.83-.2-.25-.15-.37-.34-.37-.58V1.55c0-.24-.07-.42-.22-.52-.15-.1-.4-.16-.77-.16l-1.24.04c-.63 0-1.1.09-1.43.27.65.26.97.67.97 1.25v3.22c-.03.3-.18.55-.44.75-.26.2-.56.3-.88.3-.43 0-.77-.17-1-.52a18.48 18.48 0 0 1-2.54-4.1l-.2-.48-2.9-.01c-.2 0-.3 0-.33.02-.02.02-.03.07-.03.16 0 .1.02.22.04.35l.46 1.02a23.46 23.46 0 0 0 4 6.26c1.44 1.52 2.85 2.28 4.23 2.28h2.2c.08 0 .14-.02.19-.06a.53.53 0 0 0 .1-.25l.05-.18.42-1.61c.11-.22.22-.37.3-.44.16-.13.35-.2.57-.2.35 0 .71.17 1.08.53l1.86 1.97c.11.16.24.24.37.24h3.6c.45 0 .67-.09.67-.27a.31.31 0 0 0-.07-.19l-3.17-3.3a1.17 1.17 0 0 1-.38-.83c0-.3.12-.57.35-.84.2-.24.56-.65 1.1-1.22a28.2 28.2 0 0 0 1.44-1.59c.41-.5.68-.94.81-1.34l.07-.24a.24.24 0 0 1-.02-.12c0-.05-.01-.1-.03-.14H18.7c-.22.08-.4.19-.53.33l-.13.35c-.36.84-1.32 2.14-2.86 3.9-.31.24-.67.36-1.08.36Z" />
  </symbol>

  <symbol id="instagram" viewBox="0 0 17 17">
    <path
      d="M8.797.247c1.333 0 2.421.015 3.265.046.719.032 1.36.157 1.922.375a3.98 3.98 0 011.406.907c.396.396.698.864.907 1.406.218.562.343 1.203.375 1.922.03.844.046 1.932.046 3.265 0 1.334-.015 2.422-.046 3.266-.032.719-.157 1.36-.375 1.922a3.989 3.989 0 01-.907 1.406 3.989 3.989 0 01-1.406.906c-.562.22-1.203.344-1.922.376-.844.03-1.932.046-3.265.046a91.88 91.88 0 01-3.266-.046c-.719-.032-1.36-.157-1.922-.376a3.989 3.989 0 01-1.406-.906 3.987 3.987 0 01-.906-1.406c-.22-.563-.344-1.203-.375-1.922a91.736 91.736 0 01-.047-3.266c0-1.333.015-2.421.047-3.265.03-.719.156-1.36.375-1.922.208-.542.51-1.01.906-1.406A3.987 3.987 0 013.609.668C4.172.45 4.812.325 5.531.293A91.732 91.732 0 018.797.247zm0 1.03a98.8 98.8 0 00-3.391.048 5 5 0 00-1.563.297A2.853 2.853 0 002.25 3.215c-.177.48-.276 1-.297 1.563a98.804 98.804 0 00-.047 3.39c0 1.386.016 2.516.047 3.391a5 5 0 00.297 1.563 2.85 2.85 0 001.593 1.593c.48.177 1 .276 1.563.297.875.031 2.005.047 3.39.047 1.386 0 2.516-.015 3.391-.047a5.015 5.015 0 001.563-.297 2.853 2.853 0 001.593-1.593c.178-.48.277-1 .297-1.563.032-.875.047-2.005.047-3.39 0-1.386-.015-2.516-.047-3.391a5.015 5.015 0 00-.297-1.563 2.853 2.853 0 00-1.593-1.593 5 5 0 00-1.563-.297 98.8 98.8 0 00-3.39-.047zm0 10.063c.875 0 1.622-.31 2.242-.93.62-.62.93-1.367.93-2.242s-.31-1.622-.93-2.242a3.055 3.055 0 00-2.242-.93c-.875 0-1.623.31-2.243.93-.62.62-.93 1.367-.93 2.242s.31 1.623.93 2.243c.62.62 1.368.93 2.243.93zm0-7.234c1.125 0 2.083.396 2.875 1.187.791.792 1.187 1.75 1.187 2.875s-.396 2.084-1.187 2.876c-.792.791-1.75 1.187-2.875 1.187s-2.084-.396-2.875-1.188c-.792-.791-1.188-1.75-1.188-2.875s.396-2.083 1.188-2.875c.791-.791 1.75-1.187 2.875-1.187zm5.187-.156c0 .26-.094.481-.281.664a.949.949 0 01-.688.273.904.904 0 01-.664-.273.904.904 0 01-.273-.664c0-.271.091-.5.273-.688a.892.892 0 01.664-.281.93.93 0 01.68.289.93.93 0 01.29.68z" />
  </symbol>

  <symbol id="facebook" viewBox="0 0 13 20">
    <path
      d="M5.12 1.77A5.18 5.18 0 0 1 8.75.29h2.75c.3 0 .55.25.55.55v3.6c0 .3-.25.55-.55.55H8.75c-.1 0-.2.04-.26.1a.34.34 0 0 0-.1.25v2.14h3.11a.55.55 0 0 1 .53.69l-.91 3.6a.55.55 0 0 1-.54.41h-2.2v6.64c0 .3-.24.55-.55.55H4.17a.55.55 0 0 1-.55-.55v-6.64h-2.2a.55.55 0 0 1-.55-.55v-3.6c0-.3.24-.55.55-.55h2.2V5.34a5 5 0 0 1 1.5-3.57Zm3.63-.38c-1.07 0-2.1.42-2.86 1.16a3.9 3.9 0 0 0-1.17 2.79v2.7c0 .3-.25.54-.55.54h-2.2v2.5h2.2c.3 0 .55.25.55.55v6.64h2.56v-6.64c0-.3.25-.55.55-.55h2.33l.63-2.5H7.83a.55.55 0 0 1-.55-.55v-2.7a1.48 1.48 0 0 1 1.47-1.45h2.2V1.4h-2.2Z" />
  </symbol>

  <symbol id="map-pin" viewBox="0 0 94 104">
    <path
      d="M66.08 86.6c16.14-7 27.38-22.7 27.38-40.94C93.46 20.89 72.73.81 47.16.81 21.56.8.83 20.89.83 45.66c0 24.77 20.73 44.85 46.31 44.85v13.36L66.08 86.6Z"
      fill="#fff" />
    <path
      d="M73.36 35.8a27.27 27.27 0 0 0-8.5-11.14 26.94 26.94 0 0 0-26.73-3.6 27.1 27.1 0 0 0-11.11 8.5 27.43 27.43 0 0 0-3.75 26.93 27.28 27.28 0 0 0 8.35 11.27 26.95 26.95 0 0 0 12.81 5.57c-.6-2.23-1.23-4.69-1.78-7.3a34.06 34.06 0 0 0 5.03 2.72s.13 2.3.3 4.87a26.7 26.7 0 0 0 5.63-.5 2.3 2.3 0 0 1 0-.81c.3-2 1.15-5.59 1.32-7.9a16.2 16.2 0 0 0 3.06-3.96l-.06.47c-.58 4.55-1.8 9.4-2.54 10.74-.24.44-.53.86-.87 1.22a27 27 0 0 0 10.5-5.08A27.28 27.28 0 0 0 75.4 47.38c.16-3.96-.53-7.91-2.04-11.57Zm-1.55 4.05c-.47.46-1.43.77-1.59-.62-.16-1.39-.2-2.36-.2-2.36s-2.04-3.65-2.8-3.7c-.76-.04-6.16 3.7-7.59 5.34-1.23 1.37-1.48 1.27-1.48 3.7 0 1.82.24 8.7.1 13.97l-8.6 2.31c-2.71.79-5.47 1.4-8.25 1.84l-1.06-6.22h-.14l-2.72-14.04s-4.03-1.53-5.5-1.95a3.94 3.94 0 0 0-4.23.67 5.4 5.4 0 0 0-1.83 4.1c.22.5.4 1.02.5 1.55.06.51-1.26.46-2.1.46-.85 0-.98-1.53-.31-3.34a24.41 24.41 0 0 1 1.92-3.98c.57-1.13 1.3-2.17 2.19-3.08 0 0 .14-.37 1.32-.26 1.17.1 7.7.46 7.7.46l.04-2.42c7.1-.99 14.24-1.46 21.4-1.43v1.95a23.63 23.63 0 0 1 8.6-2.13.96.96 0 0 1 .81.42c.36.45 2.55 3.2 2.8 3.59a29.9 29.9 0 0 1 1.94 3.2c-.2.7-.51 1.36-.92 1.96Z"
      fill="#FDC305" />
    <path
      d="M69.75 33.32c.5.64.93 1.2 1.05 1.38a29.9 29.9 0 0 1 1.94 3.2c-.2.67-.51 1.32-.91 1.9-.47.45-1.43.76-1.59-.62-.15-1.39-.22-2.3-.22-2.3s-2.04-3.66-2.8-3.7c-.76-.05-6.16 3.7-7.59 5.33-1.23 1.37-1.48 1.27-1.48 3.7 0 1.6.18 7.08.14 11.97 1.91.2 4.72.74 5.57 2 0 0-.3-7.65 8.25-3.65 0 0 .3-10.43 12.12-7.76a46.27 46.27 0 0 0-14.48-11.45ZM58.62 30.85c.04-5.9-.45-11.8-1.48-17.62 0 0-.16-1.39-.92-.26a15.3 15.3 0 0 0-1.27 4.27c-4.52-.3-9.05-.17-13.55.36-.86-2.93-2.34-4.26-3.05-3.91-.71.35-.8 3.5-.8 3.5l-.34 15.09a149.6 149.6 0 0 1 21.4-1.43Z"
      fill="#F06351" />
    <path
      d="M58 60.45c.14-1.14.22-2.65.26-4.32l-8.61 2.31c-2.71.8-5.46 1.43-8.25 1.89l1.18 5.33c0 .11 0 .23.07.35a34.06 34.06 0 0 0 5.03 2.72 44.75 44.75 0 0 0 7.27-4.4v.06A16.2 16.2 0 0 0 58 60.45Z"
      fill="#E55645" />
    <path
      d="M43.9 27.51c-.06-.1 1.05.73 1.49.99.43.25.64.44.64.62 0 .19-.27.37-.65.37s-.98-.13-1.06-.28c-.09-.15.63 0 1 0h.3a8.57 8.57 0 0 1-1.72-1.7ZM51.82 27.63s-1.05 1.37-1.15 1.43c-.1.06-.18.36.2.3a8.5 8.5 0 0 0 1.3-.29c.1-.06.06-.21-.14-.2-.2.03-.71.06-1.05.13l.9-1.36s.03-.13-.06 0ZM48.5 34.15c.5-.22.9-.6 1.16-1.07.3-.7 0-.97-.47-1.07-.64-.11-1.3.01-1.85.37-.41.39-.36.77 0 1.06.36.28.75.52 1.16.7Z"
      fill="#000" />
    <path
      d="M48.12 35.49c-.12.24-.28.46-.48.64-.3.24-.67.38-1.06.4a2.29 2.29 0 0 1-1.63-.47c-.21-.12-.4-.28-.56-.48-.1-.11-.23-.2-.38-.26 0 0 .8 4.38 2.72 5.08 1.92.7 2.28-.8 2.33-1.21a6.04 6.04 0 0 0-.86-3.46c0-.32-.02-.1-.08-.24Z"
      fill="#F06351" />
    <path
      d="M46.33 36.7a3.68 3.68 0 0 1-2.49-1.52.16.16 0 0 1 0-.21.15.15 0 0 1 .17-.04l.04.04a3.42 3.42 0 0 0 2.23 1.4 2.22 2.22 0 0 0 1.74-1.07l.15-.2.1.23s.4.8 1.06.85c.65.04 1.12-.45 1.72-1.37a.15.15 0 0 1 .21-.05.15.15 0 0 1 .04.22c-.7 1.04-1.37 1.54-2 1.5a1.63 1.63 0 0 1-1.18-.78 2.4 2.4 0 0 1-1.8 1Z"
      fill="#000" />
    <path d="M48.4 51.05a3.98 3.98 0 0 0 3.96-4c0-2.2-1.77-4-3.96-4a3.98 3.98 0 0 0-3.96 4c0 2.21 1.77 4 3.96 4Z"
      fill="#FDC305" />
    <path
      d="m53.65 43.8-3.3 1.4 1.2-6-7.92 10.4 3.31-1.4-1.22 6.02 7.93-10.42Zm-7.8 4.09 4.39-5.77-.86 4.26 2.11-.87-4.42 5.78.85-4.27-2.08.87ZM44.36 46.32c.66 0 1.19-.54 1.19-1.2a1.19 1.19 0 1 0-2.37 0c0 .66.53 1.2 1.18 1.2ZM51.25 50.65c.46 0 .84-.38.84-.84a.84.84 0 0 0-.84-.85.84.84 0 0 0-.83.85c0 .46.37.84.83.84ZM52.27 48.33a.37.37 0 0 0 0-.75c-.2 0-.37.17-.37.38 0 .2.16.37.37.37Z"
      fill="#111" />
    <path
      d="M58.57 32.78a61.01 61.01 0 0 0-5.38 5.55 33.8 33.8 0 0 1-5.62 5.23c-.23-.57-1.72-1.62-1.72-1.62s-3.32-2.3-5.5-4.1a33.84 33.84 0 0 1-3.31-3.2l-2.12-.11a23.93 23.93 0 0 0 12.69 9.42c.9-.15 3.46-2 5.38-3.5a61.19 61.19 0 0 0 6.34-6.3c.52-.63.93-1.35 1.2-2.13-1.2.4-1.96.76-1.96.76ZM37.48 40.07s-4.03-1.53-5.5-1.95a3.94 3.94 0 0 0-4.23.67 5.4 5.4 0 0 0-1.83 4.1c.22.5.4 1.02.5 1.55.06.51-1.26.46-2.1.46-.85 0-.98-1.53-.31-3.34a24.41 24.41 0 0 1 1.92-3.98C20.17 40.6 10.08 47.6 10.08 47.6a48 48 0 0 1 8.65.25c5.55.57 5.29 4.98 5.29 4.98 1.95-.54 3.94-.94 5.95-1.18 2.24-.15 2.4 2.26 2.4 2.26l.56 4.11c.85-.92 1.78-1.77 2.8-2.51a6.37 6.37 0 0 1 4.63-1.39l-2.88-14.05Z"
      fill="#F06351" />
  </symbol>

  <symbol id="academy-logo" viewBox="0 0 27 34">
    <path
      d="M13.6426 0.0157537L13.5 0L0 1.40733V26.0129L13.5 34L27 26.0129V1.40733L13.6426 0.0157537ZM25.2344 25.0151L13.5 31.9573L1.76561 25.0151V14.9293L13.4507 21.8451L13.4701 23.0984L5.45351 18.3548L5.44295 19.5801L13.4894 24.3885L13.5088 25.675L5.46408 20.9174L5.45351 22.1427L13.5 26.9511L21.6239 22.1182V20.8929V16.909L25.2432 14.7595L25.2344 25.0151ZM25.2344 13.4519L22.0147 15.3319L20.5325 16.2071L13.4666 12.0201L13.456 13.2454L19.4957 16.818L19.4429 16.8495L19.3126 16.9247L18.4536 17.4166L13.4666 14.4689L13.456 15.6942L17.3921 18.0222L16.4591 18.6314L16.438 18.6436L13.4666 16.902L13.456 18.1273L15.4029 19.2615L13.4155 20.4483L1.7973 13.5762L13.4349 6.61831L25.2344 13.4519ZM25.2344 12.2266L13.4401 5.31075L1.76561 12.2196V2.9897L13.5 1.76442L25.2344 2.9897V12.2266Z" />
  </symbol>

  <symbol id="logo-text" viewBox="0 0 128 24">
    <path
      d="M1.6 22.06A9.5 9.5 0 0 1 0 16.32V7.8a9.63 9.63 0 0 1 1.5-5.85C2.6.63 4.3 0 6.81 0c2.5 0 4.1.62 5.1 1.74a7.49 7.49 0 0 1 1.51 5.03v2.05h-4.9V6.47c.03-.7-.07-1.4-.3-2.05a1.46 1.46 0 0 0-.59-.63 1.41 1.41 0 0 0-.82-.19c-.7 0-1.2.2-1.4.72-.23.73-.33 1.49-.3 2.25v10.98c-.05.74.08 1.48.4 2.15.2.52.7.72 1.4.72s1.1-.2 1.3-.72c.23-.69.33-1.42.3-2.15v-2.46h4.91v2.05a7.98 7.98 0 0 1-1.5 5.13c-1 1.23-2.7 1.84-5.1 1.84-2.41-.1-4.22-.71-5.22-2.05ZM19.33.32h5.7l4.22 23.38h-4.61l-.8-4.92h-3.3l-.8 4.92h-4.72L19.33.32Zm4.1 15.38-1.2-9.13-1.2 9.13h2.4ZM32.75 4.22h-3.4V.32h11.91v3.8h-3.4V23.7h-5.1V4.22ZM50.38.32h8.81v2.46h-5.7v7.7h4.6v2.35h-4.6v8.62h5.7v2.36h-8.91V.3h.1ZM61.8.32H64l6.51 15.49V.3h2.6v23.4h-2l-6.6-16v16H61.8V.3ZM76.12.32h8.81v2.46h-5.7v7.7h4.6v2.35h-4.6v8.62h5.7v2.36h-8.81V.3ZM87.54.32h4.6a7.87 7.87 0 0 1 5.11 1.43c1.1.93 1.6 2.57 1.6 4.72 0 2.98-.9 4.82-2.8 5.44l3.2 11.69h-3.1l-3-10.97h-2.5V23.6h-3.21V.32h.1Zm4.4 10.05a4.3 4.3 0 0 0 2.9-.82c.6-.51.91-1.54.91-3.08a6.77 6.77 0 0 0-.3-2.25 2.58 2.58 0 0 0-1.1-1.24 4.47 4.47 0 0 0-2.2-.4h-1.4v7.69h1.2v.1ZM102.86 21.96a10.57 10.57 0 0 1-1.4-5.95v-7.8c-.03-1.48.14-2.96.5-4.4a5.2 5.2 0 0 1 1.9-2.67c1.12-.68 2.41-1 3.7-.92 2.11 0 3.61.5 4.52 1.64a7.98 7.98 0 0 1 1.4 5.12v.83h-3v-.72c0-.86-.07-1.72-.2-2.57a2.06 2.06 0 0 0-.8-1.33 3.04 3.04 0 0 0-1.91-.51 2.96 2.96 0 0 0-2 .61 2.3 2.3 0 0 0-.8 1.64c-.14.92-.2 1.85-.2 2.77v8.72a9.53 9.53 0 0 0 .6 3.9c.4.82 1.2 1.13 2.4 1.13a2.37 2.37 0 0 0 2.4-1.23c.53-1.3.77-2.7.7-4.1v-1.65h-2.9v-2.36h5.8v11.6h-2l-.3-2.67c-.26.89-.8 1.67-1.55 2.2-.74.55-1.64.81-2.55.77a4.9 4.9 0 0 1-4.3-2.05ZM119.99 15.5 115.08.42h3l3.51 11.28 3.4-11.28H128l-4.9 15.08v8.2h-3.01v-8.2h-.1Z" />
  </symbol>

  <symbol id="email" viewBox="0 0 19 14">
    <path fill-rule="evenodd" clip-rule="evenodd"
      d="M18 .55v2.8l-9 7-9-7V.55h18ZM0 13.85v-8h1.3v6.7H17v-6.7h1.3v8H0ZM16.7 2.7l-7.7 6-7.7-6v-.56h15.4v.56Z" />
  </symbol>

  <symbol id="phone" viewBox="0 0 20 21">
    <path fill-rule="evenodd" clip-rule="evenodd"
      d="M8.1 13.57v6.22a.5.5 0 0 1-.6.5H2.9A2.88 2.88 0 0 1 0 17.18V3.23A3.02 3.02 0 0 1 3.1.32h4.4a.86.86 0 0 1 .7.6v6.32a.65.65 0 0 1-.6.6H3.2a1.23 1.23 0 0 1 1.2-1.2h2.4V1.62H2.9a1.77 1.77 0 0 0-1.7 1.81v14.05a1.8 1.8 0 0 0 1.9 1.7h3.7v-5.01H4.3a1.22 1.22 0 0 1-1.2-1.2h4.4a.65.65 0 0 1 .6.6Zm1.3-3.82h8.5l-2.1-2 .9-.9 3.1 3.1a.75.75 0 0 1 0 .9l-3.1 3.12-.9-.9 2.1-2.11H9.4v-1.2Z" />
  </symbol>

  <symbol id="plus" viewBox="0 0 30 30">
    <path fill-rule="evenodd" clip-rule="evenodd" d="M14 16V30H16V16H30V14H16V0H14V14H0V16H14Z" fill="#D3D3D3" />
  </symbol>

  <symbol id="present" viewBox="0 0 78 80">
    <g fill="#fff">
      <path
        d="M64.02 34.71H14.03a3.17 3.17 0 0 1-3.18-3.16v-9.47a3.17 3.17 0 0 1 3.18-3.16h49.98a3.17 3.17 0 0 1 3.19 3.16v9.47a3.17 3.17 0 0 1-3.18 3.16ZM14.03 21.35c-.4 0-.74.33-.74.73v9.47c0 .41.33.74.74.74h49.98c.41 0 .75-.33.75-.74v-9.47c0-.4-.34-.73-.75-.73H14.03Z" />
      <path
        d="M57.04 67.15H21a6.11 6.11 0 0 1-6.13-6.09V33.5c0-.67.55-1.2 1.22-1.2.68 0 1.22.53 1.22 1.2v27.56A3.68 3.68 0 0 0 21 64.73h36.04a3.68 3.68 0 0 0 3.7-3.67V33.5a1.22 1.22 0 0 1 2.44 0v27.56a6.11 6.11 0 0 1-6.14 6.09Z" />
      <path
        d="M39.02 67.15c-.67 0-1.22-.54-1.22-1.21V33.5c0-.67.55-1.2 1.22-1.2.68 0 1.22.53 1.22 1.2v32.44c0 .67-.54 1.2-1.22 1.2ZM23.81 21.34a7.8 7.8 0 0 1-3.17-10.6A7.9 7.9 0 0 1 31.3 7.6c5.82 3.13 8.96 11.86 9.09 12.23l-2.3.8c-.03-.08-2.96-8.22-7.95-10.9a5.46 5.46 0 0 0-7.36 2.17 5.39 5.39 0 0 0 2.2 7.32l-1.17 2.13Z" />
      <path
        d="m54.23 21.34-1.16-2.13a5.38 5.38 0 0 0-1.03-9.92 5.43 5.43 0 0 0-4.14.43c-4.98 2.68-7.91 10.82-7.94 10.9l-2.3-.8c.13-.37 3.27-9.1 9.08-12.23a7.86 7.86 0 0 1 11.29 9.1c-.6 2-1.95 3.66-3.8 4.65ZM61.95 50.93H16.09c-.67 0-1.22-.54-1.22-1.2 0-.68.55-1.22 1.22-1.22h45.86c.67 0 1.22.54 1.22 1.21 0 .67-.55 1.21-1.22 1.21Z" />
    </g>
  </symbol>
</svg>
