<?xml version="1.0" encoding="utf-8"?>
<svg aria-label="hidden" version="1.1" xmlns="http://www.w3.org/2000/svg" xmlns:xlink="http://www.w3.org/1999/xlink">
  <symbol id="cat-sit" viewBox="0 0 200 211">
    <circle cx="100" cy="111" r="100" fill="#68B738"/>
    <path d="M139.7 0h-.8a7 7 0 0 0-2.9 3.1c-1.1 2.2-2 4.5-2.6 6.8a3.2 3.2 0 0 1-3 2.6A14.8 14.8 0 0 0 120 20a53.8 53.8 0 0 0-3.7 8c-2.8 7.2-5 14.8-7.7 22.1-1.3 3.3-1.3 3.3-5.1 3.3-4.6 0-4.2-.6-4.3 4.3 0 1.6.5 2.4 2.2 2.3.5 0 1.3-.3 1.5.4.2.7-.5 1-1 1.4a18 18 0 0 1-8.6 4.8c-3.8 1-7.7 1.8-11.4 3a57.4 57.4 0 0 0-25 15c-4 4.6-7.3 9.9-9.6 15.5a215.3 215.3 0 0 0-13.6 53.3c-1.3 8.6-2.2 17.1-3 25.8-.3 4.2-.7 8.5-.7 12.8h66.7c0-.9 0-1.8-.5-2.5a9.9 9.9 0 0 0-7.7-6.1c-1.4-.3-1.5-.7-.7-1.8 1.4-1.9 2.5-4 3.2-6.2 3.3-9.5 4.5-19.4 6.1-29.3a59 59 0 0 1 6.9-21.4 43 43 0 0 1 11.2-12.6c1.6-1.3 1.7-1.3 2 .9l.3 4.2c.6 9.4.5 18.8-.3 28.1a120.8 120.8 0 0 0 4.2 46.7H148a10.7 10.7 0 0 0-8.5-8.8c-2.5-.4-5-.2-7.5.4-1.2.3-1.7 0-1.8-1.3-.8-10.5-.2-21 2-31.3 2.7-11.9 4.7-23.9 6.1-36 .5-4.9 2.1-9.6 4.6-13.8 2.4-4.2 4.4-8.6 6.8-12.8a11.5 11.5 0 0 0 .8-10.3c-.5-1.4-1-2.8-1.7-4.2-2-3.8-4-7.6-5.8-11.5-1-2-.8-2.2 1.4-2.3 3.2 0 3.2 0 3.3-3.3v-1.3c0-1.3-.5-2-2-2h-3c-1.4 0-1.8-.5-1.5-2a12.3 12.3 0 0 1 10.3-8.7c4.4-.4 8.9 0 13.2.9a2 2 0 0 0 2.5-1.3l2.6-6a2 2 0 0 0-.2-2.2 70.9 70.9 0 0 0-24-21.2 3 3 0 0 1-.6-1.4c-.5-2.8-1.3-5.6-2.5-8.2a7 7 0 0 0-2.8-3.4Z" fill="#000"/>
  </symbol>
  <symbol id="cat-walk" viewBox="0 0 268 200">
    <circle cx="136" cy="100" r="100" fill="#68B738"/>
    <path d="M246.2 55.6c2.3-3.7 5.4-6.8 9-9.2 2-1.4 3.2-1.4 4.4 1.2 1.6 3.8 3 7.8 1.8 12a4.6 4.6 0 0 0 .8 4.2l3.2 4.6a12.5 12.5 0 0 1 1.8 12.4c-.7 2-.9 4.1-.4 6.2.4 2 .4 4 0 6a7.5 7.5 0 0 1-5.4 6.4c-2.6.5-4.8 2-6.4 4a2.1 2.1 0 0 1-1.8 1c-2.4.4-8.4-5-8.4-7.4v-1.2c.2-7.2-.2-7.8-6.8-10.8a8.8 8.8 0 0 1-3.6-2.4c-1.2-1.6-2.8-1.4-4.6-.8-1.8.6-2.8 1.8-2.6 3.8.6 4.8.8 9.7.6 14.6 0 .6.1 1.1.4 1.6 6.2 9 8.6 19.6 11.6 29.8 2.4 7.8 6.8 12 14.8 12.6 1.3.1 2.6.3 3.8.6a8.3 8.3 0 0 1 6.8 6.4c1.4 4.2.6 5.2-3.6 5.2h-13c-1.7 0-3.3-.5-4.6-1.6-2-1.7-4.3-3-6.8-4-2.7-1-5.1-2.8-6.8-5.2-2.3-3.3-5-6.3-8-9-5.6-5.8-11.6-11.4-16.8-17.4-4-4-6.2-9.5-6.4-15.2 0-1.8-.4-2.6-2.4-1.8-.6.4-1.3.6-2 .6-5.6 0-8.4 3.4-10.4 8.4-1.8 4.2-4.2 8.2-6.4 12.4-1.2 2.6-2 5.5-2 8.4 0 4.8 1.2 6.4 5.6 8 2.8 1 5.4 2 6.8 4.8 1.6 3.2 1.2 4-2.2 4.2h-13.6a3.8 3.8 0 0 1-3.8-2.2l-3.6-6a12.1 12.1 0 0 1-1.4-10.8c.9-3.5 1-7.1.2-10.6a16.8 16.8 0 0 1 3.4-14c1.2-1.4 1.2-2-.8-2.4a100.1 100.1 0 0 1-23.8-8.4c-6.4-2.4-7.6-2-9.4 4.6-1.6 5.6-3.2 11.2-4.4 17a34 34 0 0 0 2.2 18.4c.8 2.4 3.2 2.2 5 2.8 4 1.2 7.4 2.8 9 7 1.4 3.2 1.2 3.6-2.2 3.6-3.4 0-6.8-.2-10.4 0-3 0-6-1-8.4-2.8-9.6-6.4-12.4-16.2-13.2-26.8-.4-6.6-4-11.8-8.2-16.8-.8-1-1.6-1.4-2.8-.6a88.6 88.6 0 0 1-13.4 6 53.4 53.4 0 0 0-24.4 17.6c-2.3 3-3.9 6.5-4.4 10.2-.6 3.6.4 5.2 4 6.2s5.4 3 5.8 6.8c.2 1.6-.4 2.4-2 2.4H49.4a3.3 3.3 0 0 1-2.6-1.6c-2.5-3.1-3.9-7-3.8-11-.1-7 .5-13.8 1.8-20.6a12.6 12.6 0 0 1 6.8-9.6c11.8-5.6 18-16.2 23.6-27.2 1.2-2.2.2-2.6-1.8-2.4A33 33 0 0 0 58 84.2c-5.9 4.3-11.4 9-16.6 14.2-5.5 5.6-12.8 9-20.6 9.8C6.2 109-.6 100.8 0 87.6c.1-4.5 1.8-8.8 4.8-12.2a8.5 8.5 0 0 1 9-3c3 .8 3.8 2.4 2.6 5.4l-2 3.4a15 15 0 0 0-2 4c-2.2 6 .8 10.2 7 10.8 6.6.6 12-2.2 17-6.2 6-4.8 11.4-10.4 16-16.6A41.6 41.6 0 0 1 81.2 57c4.6-.6 8.6-2.6 13-3.8a83 83 0 0 1 25.4-3.6c4 .2 8-.6 11.6-2.2 9.8-4 20-4 30.2-2 8 1.6 16 3.6 23.8 5.6 4.6.9 9.4.7 14-.4 8.8-2.2 17.8-3.6 26.8-4 6-.3 11.8.9 17.2 3.4 4 1.8 4 1.8 3 5.6Z" fill="#000"/>
  </symbol>
  <symbol id="adv-leaf" viewBox="0 0 60 60">
    <path fill="#68B738" d="M0 0h60v60H0z"/>
    <path d="M42.8 16.8a1 1 0 0 0-.9-.8c-5 0-17 1-21.8 8.4-2.5 3.9-2.7 8.9-.6 15-.7 2-1 3.4-1 3.4 0 .5.2 1 .7 1.2h.2a1 1 0 0 0 1-.8s2.4-10.4 10.8-16.4c.4-.3.6-.9.3-1.4a.9.9 0 0 0-1.3-.2 30 30 0 0 0-9.5 11.6c-1.3-4.6-1-8.4 1-11.3 3.7-5.7 12.6-7.1 18-7.4A20 20 0 0 0 37.2 29c0 3.1-.8 5.5-2.4 7.1-2.6 2.6-6.9 2.9-10 2.6-.5 0-1 .4-1 1 0 .5.3 1 .8 1l2 .1c3.2 0 6.9-.7 9.5-3.2 2-2 3-4.9 3-8.6 0-9.1 3.2-11 3.3-11.1.3-.2.5-.7.4-1.1Z" fill="#fff"/>
  </symbol>
  <symbol id="adv-bubbles" viewBox="0 0 60 60">
  <rect width="60" height="60" fill="#68B738"/>
  </symbol>
</svg>
