<svg width="20" height="21" fill="none" xmlns="http://www.w3.org/2000/svg"><path fill-rule="evenodd" clip-rule="evenodd" d="M8.1 13.57v6.22a.5.5 0 0 1-.6.5H2.9A2.88 2.88 0 0 1 0 17.18V3.23A3.02 3.02 0 0 1 3.1.32h4.4a.86.86 0 0 1 .7.6v6.32a.65.65 0 0 1-.6.6H3.2a1.23 1.23 0 0 1 1.2-1.2h2.4V1.62H2.9a1.77 1.77 0 0 0-1.7 1.81v14.05a1.8 1.8 0 0 0 1.9 1.7h3.7v-5.01H4.3a1.22 1.22 0 0 1-1.2-1.2h4.4a.65.65 0 0 1 .6.6Zm1.3-3.82h8.5l-2.1-2 .9-.9 3.1 3.1a.75.75 0 0 1 0 .9l-3.1 3.12-.9-.9 2.1-2.11H9.4v-1.2Z" fill="#000"/></svg>