<svg width="128" height="25" viewBox="0 0 128 25" fill="none" xmlns="http://www.w3.org/2000/svg">
<g clip-path="url(#clip0_135:3260)">
<path d="M1.60253 22.0618C0.468358 20.3787 -0.0946573 18.3608 3.016e-05 16.3182V7.80537C-0.137317 5.74081 0.390444 3.68711 1.50238 1.95922C2.6041 0.625883 4.30676 0.010498 6.81067 0.010498C9.31458 0.010498 10.9171 0.625883 11.9187 1.75409C13.006 3.18304 13.5409 4.97231 13.421 6.77973V8.83101H8.51333V6.47204C8.55297 5.77435 8.45065 5.07583 8.21286 4.42075C8.08576 4.15633 7.88431 3.9369 7.63443 3.79067C7.38455 3.64445 7.09766 3.57813 6.81067 3.60024C6.10958 3.60024 5.60879 3.80537 5.40848 4.31819C5.18191 5.04693 5.08025 5.81034 5.10801 6.5746V17.549C5.05512 18.2904 5.19327 19.0332 5.50864 19.7028C5.70895 20.2156 6.20973 20.4208 6.91083 20.4208C7.61192 20.4208 8.01255 20.2156 8.21286 19.7028C8.44058 19.0097 8.54242 18.2797 8.51333 17.549V15.0874H13.421V17.1387C13.5229 18.9756 12.9911 20.7908 11.9187 22.2669C10.9171 23.4977 9.21443 24.1131 6.81067 24.1131C4.40692 24.0105 2.6041 23.3951 1.60253 22.0618Z" fill="#111111"/>
<path d="M19.3302 0.318115H25.0391L29.2457 23.7027H24.6385L23.8372 18.7797H20.5321L19.7308 23.7027H15.0235L19.3302 0.318115ZM23.4366 15.7027L22.2347 6.57453L21.0329 15.7027H23.4366Z" fill="#111111"/>
<path d="M32.7512 4.21555H29.3459V0.318115H41.2645V4.11299H37.8592V23.7027H32.7512V4.21555Z" fill="#111111"/>
<path d="M50.3787 0.318115H59.1925V2.77965H53.4836V10.472H58.0908V12.8309H53.4836V21.4463H59.1925V23.8053H50.2786V0.318115H50.3787Z" fill="#111111"/>
<path d="M61.7966 0.318115H64L70.5102 15.8053V0.318115H73.1142V23.7027H71.1111L64.5008 7.70273V23.7027H61.7966V0.318115Z" fill="#111111"/>
<path d="M76.1189 0.318115H84.9327V2.77965H79.2238V10.472H83.831V12.8309H79.2238V21.4463H84.9327V23.8053H76.1189V0.318115Z" fill="#111111"/>
<path d="M87.5368 0.318098H92.144C93.9564 0.189895 95.7575 0.696209 97.2519 1.754C98.3537 2.67707 98.8544 4.3181 98.8544 6.47194C98.8544 9.4463 97.953 11.2925 96.0501 11.9078L99.2551 23.6001H96.1502L93.1455 12.6258H90.6416V23.6001H87.4366V0.318098H87.5368ZM91.9437 10.3694C92.9762 10.4565 94.0053 10.1658 94.8482 9.54887C95.4491 9.03605 95.7496 8.01041 95.7496 6.47194C95.7774 5.70769 95.6757 4.94427 95.4491 4.21553C95.2237 3.69261 94.8366 3.26014 94.3474 2.98476C93.6576 2.66286 92.9003 2.52187 92.144 2.57451H90.7418V10.2668H91.9437V10.3694Z" fill="#111111"/>
<path d="M102.861 21.9592C101.82 20.1659 101.331 18.0926 101.459 16.0104V8.21557C101.434 6.72925 101.602 5.24617 101.959 3.80531C102.294 2.72861 102.962 1.79268 103.862 1.13864C104.981 0.460773 106.271 0.139415 107.568 0.215568C109.671 0.215568 111.174 0.728388 112.075 1.85659C113.112 3.34632 113.608 5.16027 113.477 6.9848V7.80531H110.473V7.08736C110.477 6.22838 110.41 5.37058 110.272 4.52326C110.188 3.98782 109.9 3.50842 109.471 3.18993C108.908 2.81153 108.24 2.63149 107.568 2.67711C106.85 2.62998 106.139 2.84835 105.565 3.29249C105.329 3.49579 105.137 3.74619 104.999 4.02837C104.861 4.31054 104.781 4.61855 104.764 4.93352C104.632 5.85043 104.565 6.77593 104.563 7.70275V16.4207C104.49 17.7489 104.694 19.0779 105.164 20.3181C105.565 21.1386 106.366 21.4463 107.568 21.4463C108.043 21.5069 108.524 21.4224 108.952 21.2034C109.38 20.9844 109.734 20.6407 109.972 20.2156C110.501 18.9186 110.741 17.5169 110.673 16.113V14.472H107.768V12.113H113.577V23.7027H111.574L111.274 21.0361C111.011 21.9298 110.465 22.708 109.72 23.2469C108.976 23.7858 108.078 24.0546 107.167 24.0104C106.34 24.0603 105.513 23.899 104.761 23.5409C104.01 23.1829 103.357 22.6394 102.861 21.9592Z" fill="#111111"/>
<path d="M119.987 15.4976L115.08 0.420654H118.084L121.59 11.7027L124.995 0.420654H128L123.092 15.4976V23.7027H120.088V15.4976H119.987Z" fill="#111111"/>
</g>
<defs>
<clipPath id="clip0_135:3260">
<rect width="128" height="24" fill="white" transform="translate(0 0.010498)"/>
</clipPath>
</defs>
</svg>
