<svg width="23" height="17" viewBox="0 0 23 17" fill="none" xmlns="http://www.w3.org/2000/svg">
<path d="M0.0700912 4.00316C0.0700912 3.38132 0.493211 3.04602 1.33945 2.99724L4.60039 3.01553C4.81925 3.01553 4.96515 3.10698 5.03811 3.28987C5.37368 4.20434 5.74938 4.99384 6.16521 5.65835C6.58103 6.32287 7.12453 7.08797 7.79568 7.95367C7.85404 8.06341 7.94888 8.11828 8.08019 8.11828C8.18233 8.11828 8.26257 8.0756 8.32093 7.99025L8.38659 7.78907L8.40848 4.625C8.40848 4.40553 8.34647 4.25921 8.22245 4.18605C8.09843 4.1129 7.86863 4.05803 7.53305 4.02145C7.27043 3.98487 7.13912 3.85075 7.13912 3.61908C7.13912 3.57031 7.14641 3.53373 7.161 3.50935C7.4674 2.71681 8.34282 2.32054 9.78726 2.32054L11.0129 2.30225C11.5673 2.30225 12.0269 2.41808 12.3916 2.64974C12.7564 2.88141 12.9388 3.2472 12.9388 3.74711V7.8988C13.0409 7.95977 13.1357 7.99025 13.2233 7.99025C13.4421 7.99025 13.6318 7.88051 13.7923 7.66104C15.3973 5.78333 16.2654 4.52746 16.3967 3.89342C16.3967 3.88123 16.4113 3.85075 16.4405 3.80198C16.5426 3.61908 16.7104 3.46057 16.9438 3.32645C17.1773 3.19233 17.3815 3.10088 17.5566 3.05211C17.615 3.02773 17.6806 3.01553 17.7536 3.01553H21.1459L21.3647 3.03382C21.6565 3.03382 21.8827 3.14966 22.0432 3.38132C22.1015 3.45448 22.1416 3.53373 22.1635 3.61908C22.1854 3.70443 22.2 3.78978 22.2073 3.87513C22.2146 3.96049 22.2182 4.00926 22.2182 4.02145V4.14948C22.1161 4.64939 21.8571 5.18283 21.4413 5.7498C21.0255 6.31677 20.4966 6.92946 19.8546 7.58788C19.2126 8.2463 18.8114 8.67915 18.6509 8.88643C18.5196 9.03275 18.4539 9.16687 18.4539 9.2888C18.4539 9.38634 18.5123 9.49608 18.629 9.61801L21.8243 12.9833C21.9994 13.1783 22.0869 13.3917 22.0869 13.6234C22.0869 13.9038 21.9556 14.1355 21.693 14.3184C21.4304 14.5013 21.1167 14.6049 20.7519 14.6293L20.3799 14.6476H17.0533C17.0387 14.6476 17.0095 14.6506 16.9657 14.6567C16.9219 14.6628 16.8928 14.6659 16.8782 14.6659C16.5572 14.6659 16.2581 14.55 15.9809 14.3184C15.8787 14.2208 15.193 13.5015 13.9236 12.1602C13.8507 12.0749 13.7485 11.9956 13.6172 11.9225C13.5589 12.1176 13.4823 12.398 13.3874 12.7638C13.2926 13.1296 13.2233 13.3917 13.1795 13.5502L13.1139 13.8611C12.968 14.2879 12.6616 14.544 12.1947 14.6293L11.8883 14.6476H9.74349C8.53249 14.6476 7.32514 14.1843 6.12144 13.2576C4.91773 12.3309 3.8344 11.133 2.87144 9.66373C1.90848 8.19448 1.01117 6.48442 0.179519 4.53355C0.106567 4.37505 0.0700912 4.19825 0.0700912 4.00316ZM13.2233 8.74012C12.9169 8.74012 12.6397 8.67001 12.3916 8.52979C12.1436 8.38957 12.0196 8.19753 12.0196 7.95367V3.74711C12.0196 3.50325 11.9466 3.3295 11.8007 3.22586C11.6548 3.12222 11.3995 3.0704 11.0347 3.0704L9.78726 3.10698C9.15988 3.10698 8.68569 3.19843 8.36471 3.38132C9.00668 3.63737 9.32767 4.05193 9.32767 4.625V7.84394C9.29849 8.14876 9.15258 8.40176 8.88996 8.60295C8.62733 8.80413 8.33552 8.90472 8.01454 8.90472C7.57683 8.90472 7.24125 8.72792 7.0078 8.37433C5.86975 6.93556 5.02351 5.56995 4.46908 4.2775L4.27211 3.80198L1.36134 3.78369C1.17166 3.78369 1.06588 3.79283 1.044 3.81112C1.02211 3.82941 1.01117 3.88123 1.01117 3.96658C1.01117 4.07632 1.02576 4.19215 1.05494 4.31408L1.51454 5.33829C2.74013 7.98415 4.07149 10.0691 5.50864 11.5933C6.94579 13.1174 8.35741 13.8794 9.74349 13.8794H11.932C12.0196 13.8794 12.0852 13.8581 12.129 13.8154C12.1728 13.7727 12.2093 13.6904 12.2384 13.5685L12.2822 13.3856L12.698 11.7762C12.8148 11.5567 12.9169 11.4104 13.0044 11.3372C13.1649 11.2031 13.3546 11.136 13.5735 11.136C13.9236 11.136 14.2811 11.3128 14.6459 11.6664L16.5061 13.6417C16.6228 13.8002 16.7469 13.8794 16.8782 13.8794H20.4893C20.927 13.8794 21.1459 13.788 21.1459 13.6051C21.1459 13.5441 21.124 13.4832 21.0802 13.4222L17.9068 10.1118C17.6588 9.85577 17.5347 9.58143 17.5347 9.2888C17.5347 8.99617 17.6515 8.71573 17.8849 8.44748C18.0746 8.20363 18.443 7.79821 18.9901 7.23124C19.5373 6.66427 20.0151 6.13388 20.4236 5.64006C20.8322 5.14625 21.1021 4.69816 21.2334 4.29579L21.299 4.05803C21.2845 4.03364 21.2772 3.99402 21.2772 3.93915C21.2772 3.88428 21.2699 3.83856 21.2553 3.80198H17.8193C17.6004 3.87513 17.4253 3.98487 17.294 4.13119L17.1627 4.47868C16.7979 5.32 15.8423 6.61855 14.2957 8.37433C13.9893 8.61819 13.6318 8.74012 13.2233 8.74012Z" fill="#666666"/>
</svg>
