<svg xmlns="http://www.w3.org/2000/svg" xmlns:xlink="http://www.w3.org/1999/xlink"><defs>
<clipPath id="clip0_2403_1679">
<rect width="128" height="24" fill="white"/>
</clipPath>

    <clipPath id="clip0_88:473">
      <rect width="16" height="16" fill="white" transform="translate(0 0.010498)"/>
    </clipPath>
  </defs><symbol id="email" viewBox="0 0 20 15">
  <path fill-rule="evenodd" d="M19 0.547668V0.847656V1.84767V3.34766L10 10.3477L1.00001 3.34766V1.84767V0.847656V0.547668H19ZM1 13.8477V5.84766H2.3V12.5477H18V5.84766H19.3V13.8477L19 13.8477H1.00001V13.8477H1ZM17.7 2.71185L10 8.70074L2.30001 2.71185V2.14766H17.7V2.71185Z"/>
</symbol><symbol id="fb" viewBox="0 0 13 20">
  <path d="M5.12403 1.76731C6.08751 0.822568 7.39201 0.293701 8.75 0.293701H11.5C11.8038 0.293701 12.05 0.539945 12.05 0.843701V4.43904C12.05 4.7428 11.8038 4.98905 11.5 4.98905H8.75C8.64931 4.98905 8.55486 5.02837 8.48689 5.09502C8.41929 5.16131 8.38334 5.24889 8.38334 5.33788V7.48439H11.5C11.6698 7.48439 11.8301 7.56283 11.9343 7.69692C12.0385 7.83102 12.0749 8.00572 12.033 8.17027L11.1163 11.7656C11.0542 12.0092 10.8348 12.1797 10.5833 12.1797H8.38334V18.8204C8.38334 19.1242 8.13709 19.3704 7.83334 19.3704H4.16667C3.86291 19.3704 3.61667 19.1242 3.61667 18.8204V12.1797H1.41667C1.11291 12.1797 0.866669 11.9335 0.866669 11.6297V8.03439C0.866669 7.73063 1.11291 7.48439 1.41667 7.48439H3.61667V5.33788C3.61667 3.99656 4.16018 2.7124 5.12403 1.76731ZM8.75 1.3937C7.67685 1.3937 6.64977 1.81182 5.89417 2.55273C5.13893 3.29327 4.71667 4.29534 4.71667 5.33788V8.03439C4.71667 8.33815 4.47043 8.58439 4.16667 8.58439H1.96667V11.0797H4.16667C4.47043 11.0797 4.71667 11.326 4.71667 11.6297V18.2704H7.28334V11.6297C7.28334 11.326 7.52958 11.0797 7.83334 11.0797H10.156L10.7922 8.58439H7.83334C7.52958 8.58439 7.28334 8.33815 7.28334 8.03439V5.33788C7.28334 4.9501 7.44054 4.58044 7.71675 4.3096C7.9926 4.03912 8.36447 3.88905 8.75 3.88905H10.95V1.3937H8.75Z"/>
</symbol><symbol id="footer-logo" viewBox="0 0 128 24">
<g clip-path="url(#clip0_2403_1679)">
<path d="M1.6025 22.0513C0.468327 20.3682 -0.0946878 18.3503 -3.57628e-07 16.3077V7.79487C-0.137348 5.73031 0.390413 3.67661 1.50235 1.94872C2.60407 0.615385 4.30673 0 6.81064 0C9.31455 0 10.9171 0.615385 11.9186 1.74359C13.006 3.17255 13.5409 4.96181 13.421 6.76923V8.82051H8.5133V6.46154C8.55294 5.76385 8.45062 5.06533 8.21283 4.41026C8.08573 4.14583 7.88428 3.9264 7.6344 3.78018C7.38452 3.63395 7.09763 3.56763 6.81064 3.58974C6.10955 3.58974 5.60876 3.79487 5.40845 4.30769C5.18187 5.03643 5.08022 5.79984 5.10798 6.5641V17.5385C5.05509 18.2799 5.19324 19.0227 5.50861 19.6923C5.70892 20.2051 6.2097 20.4103 6.9108 20.4103C7.61189 20.4103 8.01252 20.2051 8.21283 19.6923C8.44055 18.9992 8.54239 18.2692 8.5133 17.5385V15.0769H13.421V17.1282C13.5228 18.9651 12.9911 20.7803 11.9186 22.2564C10.9171 23.4872 9.2144 24.1026 6.81064 24.1026C4.40689 24 2.60407 23.3846 1.6025 22.0513Z" fill="#111111"/>
<path d="M19.3302 0.307617H25.0391L29.2457 23.6922H24.6385L23.8372 18.7692H20.532L19.7308 23.6922H15.0234L19.3302 0.307617ZM23.4366 15.6922L22.2347 6.56403L21.0328 15.6922H23.4366Z" fill="#111111"/>
<path d="M32.7511 4.20505H29.3458V0.307617H41.2645V4.10249H37.8591V23.6922H32.7511V4.20505Z" fill="#111111"/>
<path d="M50.3787 0.307617H59.1925V2.76916H53.4836V10.4615H58.0908V12.8204H53.4836V21.4358H59.1925V23.7948H50.2786V0.307617H50.3787Z" fill="#111111"/>
<path d="M61.7965 0.307617H64L70.5101 15.7948V0.307617H73.1142V23.6922H71.1111L64.5007 7.69223V23.6922H61.7965V0.307617Z" fill="#111111"/>
<path d="M76.1189 0.307617H84.9327V2.76916H79.2237V10.4615H83.8309V12.8204H79.2237V21.4358H84.9327V23.7948H76.1189V0.307617Z" fill="#111111"/>
<path d="M87.5368 0.3076H92.144C93.9564 0.179397 95.7575 0.685711 97.252 1.7435C98.3537 2.66657 98.8545 4.3076 98.8545 6.46145C98.8545 9.4358 97.9531 11.282 96.0501 11.8973L99.2551 23.5897H96.1503L93.1456 12.6153H90.6416V23.5897H87.4366V0.3076H87.5368ZM91.9437 10.3589C92.9762 10.446 94.0054 10.1553 94.8482 9.53837C95.4492 9.02555 95.7496 7.99991 95.7496 6.46145C95.7774 5.69719 95.6757 4.93378 95.4492 4.20504C95.2237 3.68211 94.8366 3.24964 94.3474 2.97427C93.6576 2.65236 92.9003 2.51137 92.144 2.56401H90.7418V10.2563H91.9437V10.3589Z" fill="#111111"/>
<path d="M102.861 21.9487C101.82 20.1554 101.331 18.0821 101.458 15.9999V8.20507C101.434 6.71875 101.602 5.23567 101.959 3.79481C102.294 2.71811 102.962 1.78218 103.862 1.12815C104.981 0.450275 106.271 0.128917 107.568 0.20507C109.671 0.20507 111.174 0.71789 112.075 1.8461C113.112 3.33582 113.608 5.14977 113.477 6.9743V7.79481H110.473V7.07687C110.477 6.21789 110.41 5.36008 110.272 4.51276C110.188 3.97732 109.9 3.49792 109.471 3.17943C108.908 2.80104 108.24 2.62099 107.568 2.66661C106.85 2.61949 106.139 2.83785 105.565 3.28199C105.329 3.48529 105.137 3.73569 104.999 4.01787C104.861 4.30004 104.781 4.60805 104.764 4.92302C104.632 5.83993 104.565 6.76543 104.563 7.69225V16.4102C104.49 17.7384 104.694 19.0674 105.164 20.3076C105.565 21.1281 106.366 21.4358 107.568 21.4358C108.043 21.4964 108.524 21.4119 108.952 21.1929C109.379 20.9739 109.734 20.6302 109.972 20.2051C110.501 18.9081 110.741 17.5064 110.673 16.1025V14.4615H107.768V12.1025H113.577V23.6923H111.574L111.274 21.0256C111.011 21.9193 110.464 22.6975 109.72 23.2364C108.976 23.7753 108.078 24.0441 107.167 23.9999C106.34 24.0498 105.513 23.8885 104.761 23.5304C104.01 23.1724 103.357 22.6289 102.861 21.9487Z" fill="#111111"/>
<path d="M119.988 15.4871L115.08 0.410156H118.085L121.59 11.6922L124.995 0.410156H128L123.092 15.4871V23.6922H120.088V15.4871H119.988Z" fill="#111111"/>
</g>

</symbol><symbol id="inst" viewBox="0 0 16 17">
  <g clip-path="url(#clip0_88:473)">
    <path d="M7.98438 0.072998C9.31771 0.072998 10.4062 0.088623 11.25 0.119873C11.9688 0.151123 12.6094 0.276123 13.1719 0.494873C13.7135 0.703206 14.1823 1.00529 14.5781 1.40112C14.974 1.79696 15.276 2.26571 15.4844 2.80737C15.7031 3.36987 15.8281 4.0105 15.8594 4.72925C15.8906 5.573 15.9062 6.66154 15.9062 7.99487C15.9062 9.32821 15.8906 10.4167 15.8594 11.2605C15.8281 11.9792 15.7031 12.6199 15.4844 13.1824C15.276 13.724 14.974 14.1928 14.5781 14.5886C14.1823 14.9845 13.7135 15.2865 13.1719 15.4949C12.6094 15.7136 11.9688 15.8386 11.25 15.8699C10.4062 15.9011 9.31771 15.9167 7.98438 15.9167C6.65104 15.9167 5.5625 15.9011 4.71875 15.8699C4 15.8386 3.35938 15.7136 2.79688 15.4949C2.25521 15.2865 1.78646 14.9845 1.39062 14.5886C0.994792 14.1928 0.692708 13.724 0.484375 13.1824C0.265625 12.6199 0.140625 11.9792 0.109375 11.2605C0.078125 10.4167 0.0625 9.32821 0.0625 7.99487C0.0625 6.66154 0.078125 5.573 0.109375 4.72925C0.140625 4.0105 0.265625 3.36987 0.484375 2.80737C0.692708 2.26571 0.994792 1.79696 1.39062 1.40112C1.78646 1.00529 2.25521 0.703206 2.79688 0.494873C3.35938 0.276123 4 0.151123 4.71875 0.119873C5.5625 0.088623 6.65104 0.072998 7.98438 0.072998ZM7.98438 1.10425C6.59896 1.10425 5.46875 1.11987 4.59375 1.15112C4.03125 1.17196 3.51042 1.27091 3.03125 1.448C2.28125 1.7605 1.75 2.29175 1.4375 3.04175C1.26042 3.52091 1.16146 4.04175 1.14062 4.60425C1.10938 5.47925 1.09375 6.60946 1.09375 7.99487C1.09375 9.38029 1.10938 10.5105 1.14062 11.3855C1.16146 11.948 1.26042 12.4688 1.4375 12.948C1.75 13.698 2.28125 14.2292 3.03125 14.5417C3.51042 14.7188 4.03125 14.8178 4.59375 14.8386C5.46875 14.8699 6.59896 14.8855 7.98438 14.8855C9.36979 14.8855 10.5 14.8699 11.375 14.8386C11.9375 14.8178 12.4583 14.7188 12.9375 14.5417C13.6875 14.2292 14.2188 13.698 14.5312 12.948C14.7083 12.4688 14.8073 11.948 14.8281 11.3855C14.8594 10.5105 14.875 9.38029 14.875 7.99487C14.875 6.60946 14.8594 5.47925 14.8281 4.60425C14.8073 4.04175 14.7083 3.52091 14.5312 3.04175C14.2188 2.29175 13.6875 1.7605 12.9375 1.448C12.4583 1.27091 11.9375 1.17196 11.375 1.15112C10.5 1.11987 9.36979 1.10425 7.98438 1.10425ZM7.98438 11.1667C8.85938 11.1667 9.60677 10.8569 10.2266 10.2371C10.8464 9.61727 11.1562 8.86987 11.1562 7.99487C11.1562 7.11987 10.8464 6.37248 10.2266 5.75269C9.60677 5.13289 8.85938 4.823 7.98438 4.823C7.10938 4.823 6.36198 5.13289 5.74219 5.75269C5.1224 6.37248 4.8125 7.11987 4.8125 7.99487C4.8125 8.86987 5.1224 9.61727 5.74219 10.2371C6.36198 10.8569 7.10938 11.1667 7.98438 11.1667ZM7.98438 3.93237C9.10938 3.93237 10.0677 4.32821 10.8594 5.11987C11.651 5.91154 12.0469 6.86987 12.0469 7.99487C12.0469 9.11987 11.651 10.0782 10.8594 10.8699C10.0677 11.6615 9.10938 12.0574 7.98438 12.0574C6.85938 12.0574 5.90104 11.6615 5.10938 10.8699C4.31771 10.0782 3.92188 9.11987 3.92188 7.99487C3.92188 6.86987 4.31771 5.91154 5.10938 5.11987C5.90104 4.32821 6.85938 3.93237 7.98438 3.93237ZM13.1719 3.77612C13.1719 4.03654 13.0781 4.25789 12.8906 4.44019C12.7031 4.62248 12.474 4.71362 12.2031 4.71362C11.9427 4.71362 11.7214 4.62248 11.5391 4.44019C11.3568 4.25789 11.2656 4.03654 11.2656 3.77612C11.2656 3.50529 11.3568 3.27612 11.5391 3.08862C11.7214 2.90112 11.9427 2.80737 12.2031 2.80737C12.4635 2.80737 12.6901 2.90373 12.8828 3.09644C13.0755 3.28914 13.1719 3.51571 13.1719 3.77612Z"/>
  </g>
  
</symbol><symbol id="logo-html" viewBox="0 0 27 35">
  <path d="M13.6426 0.0262517L13.5 0.010498L0 1.41783V26.0234L13.5 34.0105L27 26.0234V1.41783L13.6426 0.0262517ZM25.2344 25.0256L13.5 31.9678L1.76561 25.0256V14.9398L13.4507 21.8556L13.4701 23.1089L5.45351 18.3653L5.44295 19.5906L13.4894 24.399L13.5088 25.6855L5.46408 20.9279L5.45351 22.1532L13.5 26.9616L21.6239 22.1287V20.9034V16.9195L25.2432 14.77L25.2344 25.0256ZM25.2344 13.4624L22.0147 15.3424L20.5325 16.2176L13.4666 12.0306L13.456 13.2559L19.4957 16.8285L19.4429 16.86L19.3126 16.9352L18.4536 17.4271L13.4666 14.4794L13.456 15.7047L17.3921 18.0327L16.4591 18.6419L16.438 18.6541L13.4666 16.9125L13.456 18.1378L15.4029 19.272L13.4155 20.4588L1.7973 13.5867L13.4349 6.62881L25.2344 13.4624ZM25.2344 12.2371L13.4401 5.32125L1.76561 12.2301V3.0002L13.5 1.77491L25.2344 3.0002V12.2371Z"/>
</symbol><symbol id="map-pin" viewBox="0 0 94 104">
<path d="M66.0801 86.6001C82.2201 79.6001 93.4601 63.9001 93.4601 45.6601C93.4601 20.8901 72.7301 0.810062 47.1601 0.810062C21.5601 0.800062 0.830078 20.8901 0.830078 45.6601C0.830078 70.4301 21.5601 90.5101 47.1401 90.5101V103.87L66.0801 86.6001Z" fill="white"/>
<path d="M73.36 35.8C71.5453 31.4097 68.6152 27.5696 64.86 24.66C61.1139 21.7638 56.6706 19.906 51.9779 19.274C47.2852 18.642 42.5088 19.258 38.13 21.06C33.7466 22.8722 29.9156 25.8032 27.02 29.56C24.1083 33.3357 22.231 37.8052 21.5734 42.5276C20.9158 47.2501 21.5006 52.0624 23.27 56.49C25.0235 60.9102 27.9019 64.7953 31.62 67.76C35.3262 70.7102 39.7446 72.6314 44.43 73.33C43.83 71.1 43.2 68.64 42.65 66.03C44.2474 67.076 45.93 67.9859 47.68 68.75C47.68 68.75 47.81 71.05 47.98 73.62C49.869 73.653 51.7563 73.4854 53.61 73.12C53.562 72.8521 53.562 72.5778 53.61 72.31C53.91 70.31 54.76 66.72 54.93 64.41C56.1489 63.2564 57.1812 61.9205 57.99 60.45L57.93 60.92C57.35 65.47 56.13 70.32 55.39 71.66C55.15 72.1 54.86 72.52 54.52 72.88C58.3483 71.9719 61.9319 70.2381 65.02 67.8C68.1271 65.3523 70.6647 62.2582 72.4571 58.7323C74.2495 55.2063 75.2536 51.3327 75.4 47.38C75.56 43.42 74.87 39.47 73.36 35.81V35.8ZM71.81 39.85C71.34 40.31 70.38 40.62 70.22 39.23C70.06 37.84 70.02 36.87 70.02 36.87C70.02 36.87 67.98 33.22 67.22 33.17C66.46 33.13 61.06 36.87 59.63 38.51C58.4 39.88 58.15 39.78 58.15 42.21C58.15 44.03 58.39 50.91 58.25 56.18L49.65 58.49C46.94 59.28 44.18 59.89 41.4 60.33L40.34 54.11H40.2L37.48 40.07C37.48 40.07 33.45 38.54 31.98 38.12C31.2854 37.8119 30.5165 37.7112 29.766 37.8301C29.0155 37.9489 28.3153 38.2823 27.75 38.79C27.1687 39.3021 26.7044 39.9333 26.3886 40.6408C26.0729 41.3482 25.913 42.1153 25.92 42.89C26.14 43.39 26.32 43.91 26.42 44.44C26.48 44.95 25.16 44.9 24.32 44.9C23.47 44.9 23.34 43.37 24.01 41.56C24.5283 40.178 25.1709 38.8459 25.93 37.58C26.5 36.45 27.23 35.41 28.12 34.5C28.12 34.5 28.26 34.13 29.44 34.24C30.61 34.34 37.14 34.7 37.14 34.7L37.18 32.28C44.28 31.29 51.42 30.82 58.58 30.85V32.8C61.2867 31.5541 64.2046 30.8314 67.18 30.67C67.3392 30.6673 67.4966 30.7043 67.638 30.7776C67.7794 30.8509 67.9004 30.9583 67.99 31.09C68.35 31.54 70.54 34.29 70.79 34.68C71.5028 35.7051 72.1507 36.7738 72.73 37.88C72.53 38.58 72.22 39.24 71.81 39.84V39.85Z" fill="#FDC305"/>
<path d="M69.75 33.32C70.25 33.96 70.68 34.52 70.8 34.7C71.5128 35.7251 72.1607 36.7939 72.74 37.9C72.54 38.57 72.23 39.22 71.83 39.8C71.36 40.25 70.4 40.56 70.24 39.18C70.09 37.79 70.02 36.88 70.02 36.88C70.02 36.88 67.98 33.22 67.22 33.18C66.46 33.13 61.06 36.88 59.63 38.51C58.4 39.88 58.15 39.78 58.15 42.21C58.15 43.81 58.33 49.29 58.29 54.18C60.2 54.38 63.01 54.92 63.86 56.18C63.86 56.18 63.56 48.53 72.11 52.53C72.11 52.53 72.41 42.1 84.23 44.77C80.2214 40.0195 75.2967 36.1253 69.75 33.32ZM58.62 30.85C58.66 24.95 58.17 19.05 57.14 13.23C57.14 13.23 56.98 11.84 56.22 12.97C55.5906 14.3238 55.1627 15.7623 54.95 17.24C50.43 16.94 45.9 17.07 41.4 17.6C40.54 14.67 39.06 13.34 38.35 13.69C37.64 14.04 37.55 17.19 37.55 17.19L37.21 32.28C44.2999 31.292 51.4516 30.8141 58.61 30.85H58.62Z" fill="#F06351"/>
<path d="M57.9999 60.4499C58.1399 59.3099 58.2199 57.7999 58.2599 56.1299L49.6499 58.4399C46.9399 59.2399 44.1899 59.8699 41.3999 60.3299L42.5799 65.6599C42.5799 65.7699 42.5799 65.8899 42.6499 66.0099C44.2474 67.0559 45.93 67.9658 47.6799 68.7299C50.2373 67.4971 52.6716 66.0238 54.9499 64.3299V64.3899C56.1637 63.2417 57.1925 61.9126 57.9999 60.4499V60.4499Z" fill="#E55645"/>
<path d="M43.9 27.51C43.84 27.41 44.95 28.24 45.39 28.5C45.82 28.75 46.03 28.94 46.03 29.12C46.03 29.31 45.76 29.49 45.38 29.49C45 29.49 44.4 29.36 44.32 29.21C44.23 29.06 44.95 29.21 45.32 29.21H45.62C44.9692 28.7275 44.3901 28.1551 43.9 27.51V27.51ZM51.82 27.63C51.82 27.63 50.77 29 50.67 29.06C50.57 29.12 50.49 29.42 50.87 29.36C51.3103 29.2975 51.745 29.2005 52.17 29.07C52.27 29.01 52.23 28.86 52.03 28.87C51.83 28.9 51.32 28.93 50.98 29L51.88 27.64C51.88 27.64 51.91 27.51 51.82 27.64V27.63ZM48.5 34.15C49 33.93 49.4 33.55 49.66 33.08C49.96 32.38 49.66 32.11 49.19 32.01C48.55 31.9 47.89 32.02 47.34 32.38C46.93 32.77 46.98 33.15 47.34 33.44C47.7 33.72 48.09 33.96 48.5 34.14V34.15Z" fill="black"/>
<path d="M48.12 35.4901C48 35.7301 47.84 35.9501 47.64 36.1301C47.34 36.3701 46.97 36.5101 46.58 36.5301C45.9965 36.5878 45.4131 36.4196 44.95 36.0601C44.74 35.9401 44.55 35.7801 44.39 35.5801C44.29 35.4701 44.16 35.3801 44.01 35.3201C44.01 35.3201 44.81 39.7001 46.73 40.4001C48.65 41.1001 49.01 39.6001 49.06 39.1901C49.128 37.9765 48.8283 36.7706 48.2 35.7301C48.2 35.4101 48.18 35.6301 48.12 35.4901V35.4901Z" fill="#F06351"/>
<path d="M46.3301 36.7C45.8333 36.6297 45.3562 36.4587 44.928 36.1973C44.4998 35.9359 44.1296 35.5897 43.8401 35.18C43.8147 35.1509 43.8008 35.1136 43.8008 35.075C43.8008 35.0364 43.8147 34.9991 43.8401 34.97C43.8607 34.9464 43.8881 34.9299 43.9186 34.9227C43.9491 34.9155 43.9811 34.9181 44.0101 34.93L44.0501 34.97C44.3108 35.3391 44.6422 35.6529 45.0249 35.8932C45.4077 36.1335 45.8343 36.2956 46.2801 36.37C46.6346 36.344 46.9776 36.2332 47.2804 36.047C47.5832 35.8608 47.8369 35.6046 48.0201 35.3L48.1701 35.1L48.2701 35.33C48.2701 35.33 48.6701 36.13 49.3301 36.18C49.9801 36.22 50.4501 35.73 51.0501 34.81C51.0603 34.7927 51.0739 34.7776 51.0902 34.7656C51.1064 34.7536 51.1248 34.7451 51.1444 34.7404C51.164 34.7357 51.1844 34.7351 51.2042 34.7384C51.2241 34.7418 51.2431 34.7491 51.2601 34.76C51.278 34.771 51.2935 34.7857 51.3054 34.8031C51.3174 34.8206 51.3255 34.8403 51.3292 34.8611C51.333 34.8818 51.3324 34.9031 51.3273 34.9236C51.3223 34.9441 51.313 34.9633 51.3001 34.98C50.6001 36.02 49.9301 36.52 49.3001 36.48C49.0574 36.447 48.8253 36.3597 48.621 36.2247C48.4168 36.0896 48.2455 35.9103 48.1201 35.7C47.913 35.9898 47.6441 36.2299 47.3327 36.4028C47.0214 36.5758 46.6755 36.6773 46.3201 36.7H46.3301Z" fill="black"/>
<path d="M48.4 51.05C48.9227 51.0474 49.4397 50.9419 49.9216 50.7394C50.4034 50.537 50.8407 50.2416 51.2084 49.8702C51.5762 49.4988 51.8671 49.0585 52.0647 48.5747C52.2623 48.0908 52.3626 47.5727 52.36 47.05C52.36 44.85 50.59 43.05 48.4 43.05C47.8773 43.0527 47.3603 43.1582 46.8784 43.3606C46.3966 43.5631 45.9593 43.8585 45.5915 44.2299C45.2238 44.6013 44.9329 45.0416 44.7353 45.5254C44.5377 46.0093 44.4374 46.5274 44.44 47.05C44.44 49.26 46.21 51.05 48.4 51.05Z" fill="#FDC305"/>
<path d="M53.6501 43.7999L50.35 45.2L51.55 39.2L43.63 49.5999L46.94 48.2L45.7201 54.22L53.6501 43.7999V43.7999ZM45.85 47.8899L50.2401 42.1199L49.3801 46.38L51.4901 45.5099L47.07 51.29L47.92 47.02L45.84 47.8899H45.85ZM44.36 46.32C45.02 46.32 45.55 45.7799 45.55 45.1199C45.5652 44.9552 45.5458 44.7891 45.4932 44.6322C45.4405 44.4754 45.3557 44.3312 45.2442 44.209C45.1327 44.0867 44.9969 43.9891 44.8455 43.9223C44.6941 43.8555 44.5305 43.821 44.3651 43.821C44.1996 43.821 44.0359 43.8555 43.8846 43.9223C43.7332 43.9891 43.5974 44.0867 43.4859 44.209C43.3744 44.3312 43.2896 44.4754 43.2369 44.6322C43.1843 44.7891 43.1649 44.9552 43.18 45.1199C43.18 45.7799 43.71 46.32 44.36 46.32ZM51.25 50.65C51.71 50.65 52.09 50.27 52.09 49.81C52.0914 49.6988 52.0706 49.5885 52.029 49.4854C51.9874 49.3824 51.9257 49.2886 51.8476 49.2095C51.7694 49.1304 51.6764 49.0677 51.5738 49.0248C51.4713 48.982 51.3612 48.9599 51.25 48.9599C51.1397 48.9613 51.0308 48.9843 50.9293 49.0277C50.8279 49.0711 50.7361 49.1341 50.659 49.213C50.5819 49.292 50.5211 49.3853 50.4801 49.4877C50.4391 49.5901 50.4187 49.6996 50.42 49.81C50.42 50.27 50.79 50.65 51.25 50.65ZM52.27 48.33C52.3695 48.33 52.4649 48.2904 52.5352 48.2201C52.6055 48.1498 52.645 48.0544 52.645 47.955C52.645 47.8555 52.6055 47.7601 52.5352 47.6898C52.4649 47.6195 52.3695 47.58 52.27 47.58C52.07 47.58 51.9001 47.7499 51.9001 47.9599C51.9001 48.1599 52.06 48.33 52.27 48.33Z" fill="#111111"/>
<path d="M58.5701 32.78C56.6612 34.5144 54.8643 36.3682 53.1901 38.33C51.5215 40.2811 49.636 42.0358 47.5701 43.56C47.3401 42.99 45.8501 41.94 45.8501 41.94C45.8501 41.94 42.5301 39.64 40.3501 37.84C39.1754 36.8497 38.0695 35.7806 37.0401 34.64L34.9201 34.53C37.9612 39.0165 42.4353 42.3378 47.6101 43.95C48.5101 43.8 51.0701 41.95 52.9901 40.45C55.2542 38.5074 57.3731 36.4018 59.3301 34.15C59.8501 33.52 60.2601 32.8 60.5301 32.02C59.3301 32.42 58.5701 32.78 58.5701 32.78ZM37.4801 40.07C37.4801 40.07 33.4501 38.54 31.9801 38.12C31.2855 37.8119 30.5166 37.7112 29.7661 37.8301C29.0156 37.949 28.3155 38.2823 27.7501 38.79C27.1688 39.3022 26.7045 39.9334 26.3888 40.6408C26.073 41.3482 25.9132 42.1153 25.9201 42.89C26.1401 43.39 26.3201 43.91 26.4201 44.44C26.4801 44.95 25.1601 44.9 24.3201 44.9C23.4701 44.9 23.3401 43.37 24.0101 41.56C24.5284 40.178 25.1711 38.8459 25.9301 37.58C20.1701 40.6 10.0801 47.6 10.0801 47.6C12.9651 47.4227 15.8602 47.5064 18.7301 47.85C24.2801 48.42 24.0201 52.83 24.0201 52.83C25.9701 52.29 27.9601 51.89 29.9701 51.65C32.2101 51.5 32.3701 53.91 32.3701 53.91L32.9301 58.02C33.7801 57.1 34.7101 56.25 35.7301 55.51C37.0308 54.4563 38.6941 53.957 40.3601 54.12L37.4801 40.07V40.07Z" fill="#F06351"/>
</symbol><symbol id="phone" viewBox="0 0 20 21">
  <path d="M8.10001 13.5659V19.7872C8.10153 19.8624 8.08616 19.9371 8.05504 20.0055C8.02391 20.074 7.97783 20.1346 7.92021 20.1828C7.86259 20.2309 7.7949 20.2655 7.72216 20.2839C7.64943 20.3022 7.5735 20.304 7.50001 20.2889H2.90001C2.50132 20.2913 2.10643 20.211 1.74019 20.0529C1.37394 19.8947 1.04426 19.6623 0.771886 19.3701C0.499509 19.078 0.290324 18.7324 0.157487 18.3552C0.0246504 17.978 -0.0289644 17.5773 1.46306e-05 17.1782V3.23043C0.01293 2.83504 0.103385 2.44608 0.266207 2.08579C0.42903 1.7255 0.661026 1.40095 0.948933 1.13069C1.23684 0.860436 1.57501 0.649771 1.94411 0.510744C2.31321 0.371716 2.70599 0.307054 3.10001 0.320453H7.50001C7.66161 0.343785 7.81325 0.412792 7.93721 0.519407C8.06117 0.626022 8.15232 0.76584 8.20001 0.922517V7.24418C8.18846 7.40002 8.12154 7.54651 8.01142 7.65701C7.90131 7.76751 7.75531 7.83466 7.60001 7.84625H3.20001C3.20516 7.52851 3.33325 7.22523 3.55718 7.00052C3.78112 6.77581 4.08336 6.64729 4.40001 6.64212H6.80001V1.62492H2.90001C2.43758 1.64322 2.00069 1.84252 1.68292 2.18013C1.36516 2.51774 1.19181 2.96681 1.20001 3.43111V17.4793C1.21148 17.717 1.26992 17.9501 1.37196 18.165C1.47399 18.3799 1.61757 18.5723 1.79436 18.7311C1.97115 18.8898 2.17762 19.0117 2.40176 19.0896C2.62591 19.1676 2.86326 19.2 3.10001 19.1851H6.80001V14.1679H4.30001C3.98336 14.1627 3.68112 14.0342 3.45718 13.8095C3.23325 13.5848 3.10516 13.2815 3.10001 12.9638H7.50001C7.65531 12.9754 7.80131 13.0425 7.91142 13.153C8.02154 13.2635 8.08846 13.41 8.10001 13.5659ZM9.39999 9.75275H17.9L15.8 7.74587L16.7 6.84277L19.8 9.95344C19.8974 10.0837 19.95 10.2421 19.95 10.405C19.95 10.5678 19.8974 10.7263 19.8 10.8565L16.7 13.9672L15.8 13.0641L17.9 10.9569H9.39999V9.75275Z"/>
</symbol><symbol id="plus" viewBox="0 0 60 60">
<line x1="31" x2="31" y2="60" stroke="#D3D3D3" stroke-width="2"/>
<line x1="60" y1="31" y2="31" stroke="#D3D3D3" stroke-width="2"/>
</symbol><symbol id="vk" viewBox="0 0 21 13">
  <path d="M0.0700912 1.99266C0.0700912 1.37082 0.493211 1.03552 1.33945 0.986745L4.60039 1.00503C4.81925 1.00503 4.96515 1.09648 5.03811 1.27938C5.37368 2.19385 5.74938 2.98334 6.16521 3.64785C6.58103 4.31237 7.12453 5.07748 7.79568 5.94317C7.85404 6.05291 7.94888 6.10778 8.08019 6.10778C8.18233 6.10778 8.26257 6.0651 8.32093 5.97975L8.38659 5.77857L8.40848 2.6145C8.40848 2.39503 8.34647 2.24871 8.22245 2.17556C8.09843 2.1024 7.86863 2.04753 7.53305 2.01095C7.27043 1.97437 7.13912 1.84025 7.13912 1.60859C7.13912 1.55981 7.14641 1.52323 7.161 1.49885C7.4674 0.706308 8.34282 0.310037 9.78726 0.310037L11.0129 0.291748C11.5673 0.291748 12.0269 0.407581 12.3916 0.639247C12.7564 0.870912 12.9388 1.2367 12.9388 1.73661V5.88831C13.0409 5.94927 13.1357 5.97975 13.2233 5.97975C13.4421 5.97975 13.6318 5.87002 13.7923 5.65054C15.3973 3.77283 16.2654 2.51696 16.3967 1.88293C16.3967 1.87073 16.4113 1.84025 16.4405 1.79148C16.5426 1.60859 16.7104 1.45008 16.9438 1.31595C17.1773 1.18183 17.3815 1.09039 17.5566 1.04161C17.615 1.01723 17.6806 1.00503 17.7536 1.00503H21.1459L21.3647 1.02332C21.6565 1.02332 21.8827 1.13916 22.0432 1.37082C22.1015 1.44398 22.1416 1.52323 22.1635 1.60859C22.1854 1.69394 22.2 1.77929 22.2073 1.86464C22.2146 1.94999 22.2182 1.99876 22.2182 2.01095V2.13898C22.1161 2.63889 21.8571 3.17233 21.4413 3.7393C21.0255 4.30627 20.4966 4.91897 19.8546 5.57739C19.2126 6.2358 18.8114 6.66865 18.6509 6.87593C18.5196 7.02225 18.4539 7.15637 18.4539 7.2783C18.4539 7.37584 18.5123 7.48558 18.629 7.60751L21.8243 10.9728C21.9994 11.1678 22.0869 11.3812 22.0869 11.6129C22.0869 11.8933 21.9556 12.125 21.693 12.3079C21.4304 12.4908 21.1167 12.5944 20.7519 12.6188L20.3799 12.6371H17.0533C17.0387 12.6371 17.0095 12.6401 16.9657 12.6462C16.9219 12.6523 16.8928 12.6554 16.8782 12.6554C16.5572 12.6554 16.2581 12.5396 15.9809 12.3079C15.8787 12.2103 15.193 11.491 13.9236 10.1497C13.8507 10.0644 13.7485 9.98513 13.6172 9.91197C13.5589 10.1071 13.4823 10.3875 13.3874 10.7533C13.2926 11.1191 13.2233 11.3812 13.1795 11.5397L13.1139 11.8506C12.968 12.2774 12.6616 12.5335 12.1947 12.6188L11.8883 12.6371H9.74349C8.53249 12.6371 7.32514 12.1738 6.12144 11.2471C4.91773 10.3204 3.8344 9.12248 2.87144 7.65323C1.90848 6.18398 1.01117 4.47392 0.179519 2.52306C0.106567 2.36455 0.0700912 2.18775 0.0700912 1.99266ZM13.2233 6.72962C12.9169 6.72962 12.6397 6.65951 12.3916 6.51929C12.1436 6.37907 12.0196 6.18703 12.0196 5.94317V1.73661C12.0196 1.49275 11.9466 1.319 11.8007 1.21536C11.6548 1.11172 11.3995 1.0599 11.0347 1.0599L9.78726 1.09648C9.15988 1.09648 8.68569 1.18793 8.36471 1.37082C9.00668 1.62687 9.32767 2.04143 9.32767 2.6145V5.83344C9.29849 6.13826 9.15258 6.39126 8.88996 6.59245C8.62733 6.79363 8.33552 6.89422 8.01454 6.89422C7.57683 6.89422 7.24125 6.71742 7.0078 6.36383C5.86975 4.92506 5.02351 3.55945 4.46908 2.267L4.27211 1.79148L1.36134 1.77319C1.17166 1.77319 1.06588 1.78233 1.044 1.80062C1.02211 1.81891 1.01117 1.87073 1.01117 1.95608C1.01117 2.06582 1.02576 2.18165 1.05494 2.30358L1.51454 3.32779C2.74013 5.97366 4.07149 8.05865 5.50864 9.58276C6.94579 11.1069 8.35741 11.8689 9.74349 11.8689H11.932C12.0196 11.8689 12.0852 11.8476 12.129 11.8049C12.1728 11.7623 12.2093 11.6799 12.2384 11.558L12.2822 11.3751L12.698 9.76566C12.8148 9.54619 12.9169 9.39987 13.0044 9.32671C13.1649 9.19259 13.3546 9.12553 13.5735 9.12553C13.9236 9.12553 14.2811 9.30233 14.6459 9.65592L16.5061 11.6312C16.6228 11.7897 16.7469 11.8689 16.8782 11.8689H20.4893C20.927 11.8689 21.1459 11.7775 21.1459 11.5946C21.1459 11.5336 21.124 11.4727 21.0802 11.4117L17.9068 8.10132C17.6588 7.84527 17.5347 7.57093 17.5347 7.2783C17.5347 6.98567 17.6515 6.70523 17.8849 6.43699C18.0746 6.19313 18.443 5.78771 18.9901 5.22074C19.5373 4.65377 20.0151 4.12338 20.4236 3.62956C20.8322 3.13575 21.1021 2.68766 21.2334 2.28529L21.299 2.04753C21.2845 2.02314 21.2772 1.98352 21.2772 1.92865C21.2772 1.87378 21.2699 1.82806 21.2553 1.79148H17.8193C17.6004 1.86464 17.4253 1.97437 17.294 2.12069L17.1627 2.46819C16.7979 3.3095 15.8423 4.60805 14.2957 6.36383C13.9893 6.60769 13.6318 6.72962 13.2233 6.72962Z"/>
</symbol></svg>