<svg xmlns="http://www.w3.org/2000/svg" xmlns:xlink="http://www.w3.org/1999/xlink"><defs><clipPath id="a"><path fill="#fff" d="M0 0h128v24H0z"/></clipPath><clipPath id="a"><path fill="#fff" transform="translate(0 .01)" d="M0 0h16v16H0z"/></clipPath></defs><symbol id="email" viewBox="0 0 20 15"><path fill-rule="evenodd" d="M19 .548v2.8l-9 7-9-7v-2.8h18Zm-18 13.3v-8h1.3v6.7H18v-6.7h1.3v8H1ZM17.7 2.712 10 8.7 2.3 2.71v-.563h15.4v.564Z"/></symbol><symbol id="fb" viewBox="0 0 13 20"><path d="M5.124 1.767A5.18 5.18 0 0 1 8.75.294h2.75a.55.55 0 0 1 .55.55v3.595a.55.55 0 0 1-.55.55H8.75c-.1 0-.195.04-.263.106a.34.34 0 0 0-.104.243v2.146H11.5a.55.55 0 0 1 .533.686l-.917 3.596a.55.55 0 0 1-.533.414h-2.2v6.64a.55.55 0 0 1-.55.55H4.167a.55.55 0 0 1-.55-.55v-6.64h-2.2a.55.55 0 0 1-.55-.55V8.034a.55.55 0 0 1 .55-.55h2.2V5.338a5 5 0 0 1 1.507-3.57Zm3.626-.373a4.08 4.08 0 0 0-2.856 1.159 3.9 3.9 0 0 0-1.177 2.785v2.696a.55.55 0 0 1-.55.55h-2.2v2.496h2.2a.55.55 0 0 1 .55.55v6.64h2.566v-6.64a.55.55 0 0 1 .55-.55h2.323l.636-2.496H7.833a.55.55 0 0 1-.55-.55V5.338c0-.388.158-.758.434-1.028s.647-.42 1.033-.42h2.2V1.393h-2.2Z"/></symbol><symbol id="footer-logo"><g fill="none"><g clip-path="url(#a)" fill="#111"><path d="M1.603 22.051A9.498 9.498 0 0 1 0 16.308V7.795a9.63 9.63 0 0 1 1.502-5.846C2.604.615 4.307 0 6.811 0s4.106.615 5.108 1.744a7.487 7.487 0 0 1 1.502 5.025v2.052H8.513V6.46a5.157 5.157 0 0 0-.3-2.05 1.463 1.463 0 0 0-.579-.63 1.415 1.415 0 0 0-.823-.191c-.701 0-1.202.205-1.403.718a6.774 6.774 0 0 0-.3 2.256v10.974a4.334 4.334 0 0 0 .4 2.154c.2.513.702.718 1.403.718.7 0 1.102-.205 1.302-.718.228-.693.33-1.423.3-2.154v-2.461h4.908v2.051a7.98 7.98 0 0 1-1.502 5.128c-1.002 1.231-2.705 1.847-5.108 1.847-2.404-.103-4.207-.718-5.208-2.052ZM19.33.308h5.71l4.206 23.384h-4.607l-.802-4.923h-3.305l-.801 4.923h-4.708L19.33.308Zm4.107 15.384-1.202-9.128-1.202 9.128h2.404ZM32.751 4.205h-3.405V.308h11.918v3.794H37.86v19.59h-5.108V4.205ZM50.379.308h8.814v2.461h-5.71v7.692h4.608v2.36h-4.607v8.615h5.709v2.359h-8.914V.308h.1ZM61.797.308H64l6.51 15.487V.308h2.604v23.384h-2.003l-6.61-16v16h-2.705V.308ZM76.119.308h8.814v2.461h-5.71v7.692h4.608v2.36h-4.607v8.615h5.709v2.359h-8.814V.308ZM87.537.308h4.607a7.874 7.874 0 0 1 5.108 1.436c1.102.923 1.603 2.564 1.603 4.717 0 2.975-.902 4.821-2.805 5.436l3.205 11.693H96.15l-3.004-10.975h-2.504V23.59h-3.205V.308h.1Zm4.407 10.05a4.301 4.301 0 0 0 2.904-.82c.601-.512.902-1.538.902-3.077a6.775 6.775 0 0 0-.3-2.256 2.583 2.583 0 0 0-1.103-1.23 4.473 4.473 0 0 0-2.203-.411h-1.402v7.692h1.202v.103ZM102.861 21.949a10.575 10.575 0 0 1-1.403-5.95V8.206c-.024-1.486.144-2.97.501-4.41a5.204 5.204 0 0 1 1.903-2.667 6.421 6.421 0 0 1 3.706-.923c2.103 0 3.606.513 4.507 1.641a7.982 7.982 0 0 1 1.402 5.128v.82h-3.004v-.717a15.503 15.503 0 0 0-.201-2.564 2.056 2.056 0 0 0-.801-1.334 3.04 3.04 0 0 0-1.903-.512 2.955 2.955 0 0 0-2.003.615 2.349 2.349 0 0 0-.801 1.641 19.734 19.734 0 0 0-.201 2.77v8.717a9.527 9.527 0 0 0 .601 3.898c.401.82 1.202 1.128 2.404 1.128.475.06.956-.024 1.384-.243a2.457 2.457 0 0 0 1.02-.988 9.635 9.635 0 0 0 .701-4.102V14.46h-2.905v-2.359h5.809v11.59h-2.003l-.3-2.666a4.186 4.186 0 0 1-1.554 2.21 4.016 4.016 0 0 1-2.553.764 4.907 4.907 0 0 1-2.406-.47 5.037 5.037 0 0 1-1.9-1.581ZM119.988 15.487 115.08.41h3.005l3.505 11.282L124.995.41H128l-4.908 15.077v8.205h-3.004v-8.205h-.1Z"/></g></g></symbol><symbol id="inst" viewBox="0 0 16 17"><g clip-path="url(#a)"><path d="M7.984.073c1.334 0 2.422.016 3.266.047.719.031 1.36.156 1.922.375.541.208 1.01.51 1.406.906.396.396.698.865.906 1.406.22.563.344 1.204.375 1.922.032.844.047 1.933.047 3.266s-.015 2.422-.047 3.266c-.03.718-.156 1.359-.375 1.921a3.987 3.987 0 0 1-.906 1.407 3.987 3.987 0 0 1-1.406.906c-.563.219-1.203.344-1.922.375-.844.031-1.932.047-3.266.047a91.88 91.88 0 0 1-3.265-.047c-.719-.031-1.36-.156-1.922-.375a3.987 3.987 0 0 1-1.406-.906 3.987 3.987 0 0 1-.907-1.407C.266 12.62.141 11.98.11 11.261a91.735 91.735 0 0 1-.046-3.266c0-1.333.015-2.422.046-3.266.032-.718.157-1.36.375-1.922.209-.541.51-1.01.907-1.406A3.987 3.987 0 0 1 2.797.495C3.359.276 4 .15 4.719.12A91.733 91.733 0 0 1 7.984.073Zm0 1.031c-1.385 0-2.515.016-3.39.047-.563.021-1.084.12-1.563.297a2.853 2.853 0 0 0-1.594 1.594c-.177.479-.276 1-.296 1.562a98.83 98.83 0 0 0-.047 3.39c0 1.386.015 2.517.047 3.392.02.562.12 1.083.296 1.562.313.75.844 1.281 1.594 1.594.48.177 1 .276 1.563.297.875.03 2.005.046 3.39.046 1.386 0 2.516-.015 3.391-.046a5.015 5.015 0 0 0 1.563-.297 2.852 2.852 0 0 0 1.593-1.594c.177-.48.276-1 .297-1.563.031-.874.047-2.005.047-3.39 0-1.386-.016-2.516-.047-3.39a5.015 5.015 0 0 0-.297-1.563 2.853 2.853 0 0 0-1.594-1.594c-.479-.177-1-.276-1.562-.297a98.803 98.803 0 0 0-3.39-.047Zm0 10.063c.875 0 1.623-.31 2.243-.93.62-.62.93-1.367.93-2.242s-.31-1.623-.93-2.242a3.056 3.056 0 0 0-2.243-.93c-.875 0-1.622.31-2.242.93-.62.62-.93 1.367-.93 2.242s.31 1.622.93 2.242c.62.62 1.367.93 2.242.93Zm0-7.235c1.125 0 2.084.396 2.875 1.188.792.792 1.188 1.75 1.188 2.875s-.396 2.083-1.188 2.875c-.791.792-1.75 1.187-2.875 1.187s-2.083-.396-2.875-1.187c-.791-.792-1.187-1.75-1.187-2.875s.396-2.083 1.187-2.875c.792-.792 1.75-1.188 2.875-1.188Zm5.188-.156c0 .26-.094.482-.281.664a.949.949 0 0 1-.688.274.904.904 0 0 1-.664-.274.904.904 0 0 1-.273-.664c0-.27.09-.5.273-.687a.891.891 0 0 1 .664-.282.93.93 0 0 1 .68.29.93.93 0 0 1 .289.68Z"/></g></symbol><symbol id="logo-html" viewBox="0 0 27 35"><path d="M13.643.026 13.5.01 0 1.418v24.605l13.5 7.988L27 26.023V1.418L13.643.026Zm11.591 25L13.5 31.968 1.766 25.026V14.94l11.685 6.916.02 1.253-8.017-4.744-.011 1.226 8.046 4.808.02 1.287-8.045-4.758-.01 1.225 8.046 4.809 8.124-4.833V16.92l3.62-2.15-.01 10.256Zm0-11.564-3.22 1.88-1.482.876-7.065-4.187-.011 1.225 6.04 3.572-.053.032-.13.075-.86.492-4.986-2.948-.011 1.226 3.936 2.328-.933.609-.021.012-2.971-1.741-.011 1.225 1.947 1.134-1.988 1.187-11.618-6.872 11.638-6.958 11.8 6.833Zm0-1.225L13.44 5.321l-11.674 6.91V3L13.5 1.774 25.234 3v9.237Z"/></symbol><symbol id="map-pin" viewBox="0 0 94 104"><g fill="none"><path d="M66.08 86.6c16.14-7 27.38-22.7 27.38-40.94C93.46 20.89 72.73.81 47.16.81 21.56.8.83 20.89.83 45.66c0 24.77 20.73 44.85 46.31 44.85v13.36L66.08 86.6Z" fill="#fff"/><path d="M73.36 35.8a27.271 27.271 0 0 0-8.5-11.14 26.94 26.94 0 0 0-26.73-3.6 27.1 27.1 0 0 0-11.11 8.5 27.43 27.43 0 0 0-3.75 26.93 27.28 27.28 0 0 0 8.35 11.27 26.95 26.95 0 0 0 12.81 5.57c-.6-2.23-1.23-4.69-1.78-7.3a34.063 34.063 0 0 0 5.03 2.72s.13 2.3.3 4.87a26.7 26.7 0 0 0 5.63-.5 2.296 2.296 0 0 1 0-.81c.3-2 1.15-5.59 1.32-7.9a16.205 16.205 0 0 0 3.06-3.96l-.06.47c-.58 4.55-1.8 9.4-2.54 10.74-.24.44-.53.86-.87 1.22a27.002 27.002 0 0 0 10.5-5.08A27.282 27.282 0 0 0 75.4 47.38c.16-3.96-.53-7.91-2.04-11.57v-.01Zm-1.55 4.05c-.47.46-1.43.77-1.59-.62-.16-1.39-.2-2.36-.2-2.36s-2.04-3.65-2.8-3.7c-.76-.04-6.16 3.7-7.59 5.34-1.23 1.37-1.48 1.27-1.48 3.7 0 1.82.24 8.7.1 13.97l-8.6 2.31c-2.71.79-5.47 1.4-8.25 1.84l-1.06-6.22h-.14l-2.72-14.04s-4.03-1.53-5.5-1.95a3.94 3.94 0 0 0-4.23.67 5.4 5.4 0 0 0-1.83 4.1c.22.5.4 1.02.5 1.55.06.51-1.26.46-2.1.46-.85 0-.98-1.53-.31-3.34a24.398 24.398 0 0 1 1.92-3.98c.57-1.13 1.3-2.17 2.19-3.08 0 0 .14-.37 1.32-.26 1.17.1 7.7.46 7.7.46l.04-2.42c7.1-.99 14.24-1.46 21.4-1.43v1.95a23.628 23.628 0 0 1 8.6-2.13.96.96 0 0 1 .81.42c.36.45 2.55 3.2 2.8 3.59a29.913 29.913 0 0 1 1.94 3.2c-.2.7-.51 1.36-.92 1.96v.01Z" fill="#FDC305"/><path d="M69.75 33.32c.5.64.93 1.2 1.05 1.38a29.922 29.922 0 0 1 1.94 3.2c-.2.67-.51 1.32-.91 1.9-.47.45-1.43.76-1.59-.62-.15-1.39-.22-2.3-.22-2.3s-2.04-3.66-2.8-3.7c-.76-.05-6.16 3.7-7.59 5.33-1.23 1.37-1.48 1.27-1.48 3.7 0 1.6.18 7.08.14 11.97 1.91.2 4.72.74 5.57 2 0 0-.3-7.65 8.25-3.65 0 0 .3-10.43 12.12-7.76a46.27 46.27 0 0 0-14.48-11.45Zm-11.13-2.47c.04-5.9-.45-11.8-1.48-17.62 0 0-.16-1.39-.92-.26a15.298 15.298 0 0 0-1.27 4.27c-4.52-.3-9.05-.17-13.55.36-.86-2.93-2.34-4.26-3.05-3.91-.71.35-.8 3.5-.8 3.5l-.34 15.09a149.614 149.614 0 0 1 21.4-1.43h.01Z" fill="#F06351"/><path d="M58 60.45c.14-1.14.22-2.65.26-4.32l-8.61 2.31c-2.71.8-5.46 1.43-8.25 1.89l1.18 5.33c0 .11 0 .23.07.35a34.073 34.073 0 0 0 5.03 2.72 44.76 44.76 0 0 0 7.27-4.4v.06A16.2 16.2 0 0 0 58 60.45Z" fill="#E55645"/><path d="M43.9 27.51c-.06-.1 1.05.73 1.49.99.43.25.64.44.64.62 0 .19-.27.37-.65.37s-.98-.13-1.06-.28c-.09-.15.63 0 1 0h.3a8.57 8.57 0 0 1-1.72-1.7Zm7.92.12s-1.05 1.37-1.15 1.43c-.1.06-.18.36.2.3.44-.063.875-.16 1.3-.29.1-.06.06-.21-.14-.2-.2.03-.71.06-1.05.13l.9-1.36s.03-.13-.06 0v-.01Zm-3.32 6.52c.5-.22.9-.6 1.16-1.07.3-.7 0-.97-.47-1.07-.64-.11-1.3.01-1.85.37-.41.39-.36.77 0 1.06.36.28.75.52 1.16.7v.01Z" fill="#000"/><path d="M48.12 35.49c-.12.24-.28.46-.48.64-.3.24-.67.38-1.06.4a2.29 2.29 0 0 1-1.63-.47c-.21-.12-.4-.28-.56-.48-.1-.11-.23-.2-.38-.26 0 0 .8 4.38 2.72 5.08 1.92.7 2.28-.8 2.33-1.21a6.04 6.04 0 0 0-.86-3.46c0-.32-.02-.1-.08-.24Z" fill="#F06351"/><path d="M46.33 36.7a3.68 3.68 0 0 1-2.49-1.52.16.16 0 0 1 0-.21.15.15 0 0 1 .17-.04l.04.04a3.42 3.42 0 0 0 2.23 1.4 2.22 2.22 0 0 0 1.74-1.07l.15-.2.1.23s.4.8 1.06.85c.65.04 1.12-.45 1.72-1.37a.15.15 0 0 1 .21-.05.15.15 0 0 1 .04.22c-.7 1.04-1.37 1.54-2 1.5a1.63 1.63 0 0 1-1.18-.78 2.4 2.4 0 0 1-1.8 1h.01Z" fill="#000"/><path d="M48.4 51.05a3.979 3.979 0 0 0 3.96-4c0-2.2-1.77-4-3.96-4a3.982 3.982 0 0 0-3.96 4c0 2.21 1.77 4 3.96 4Z" fill="#FDC305"/><path d="m53.65 43.8-3.3 1.4 1.2-6-7.92 10.4 3.31-1.4-1.22 6.02 7.93-10.42Zm-7.8 4.09 4.39-5.77-.86 4.26 2.11-.87-4.42 5.78.85-4.27-2.08.87h.01Zm-1.49-1.57c.66 0 1.19-.54 1.19-1.2a1.19 1.19 0 1 0-2.37 0c0 .66.53 1.2 1.18 1.2Zm6.89 4.33a.845.845 0 0 0 0-1.69.843.843 0 0 0-.83.85c0 .46.37.84.83.84Zm1.02-2.32a.375.375 0 0 0 0-.75c-.2 0-.37.17-.37.38 0 .2.16.37.37.37Z" fill="#111"/><path d="M58.57 32.78a61.004 61.004 0 0 0-5.38 5.55 33.797 33.797 0 0 1-5.62 5.23c-.23-.57-1.72-1.62-1.72-1.62s-3.32-2.3-5.5-4.1a33.837 33.837 0 0 1-3.31-3.2l-2.12-.11a23.93 23.93 0 0 0 12.69 9.42c.9-.15 3.46-2 5.38-3.5a61.185 61.185 0 0 0 6.34-6.3c.52-.63.93-1.35 1.2-2.13-1.2.4-1.96.76-1.96.76Zm-21.09 7.29s-4.03-1.53-5.5-1.95a3.94 3.94 0 0 0-4.23.67 5.4 5.4 0 0 0-1.83 4.1c.22.5.4 1.02.5 1.55.06.51-1.26.46-2.1.46-.85 0-.98-1.53-.31-3.34a24.407 24.407 0 0 1 1.92-3.98C20.17 40.6 10.08 47.6 10.08 47.6a47.998 47.998 0 0 1 8.65.25c5.55.57 5.29 4.98 5.29 4.98 1.95-.54 3.94-.94 5.95-1.18 2.24-.15 2.4 2.26 2.4 2.26l.56 4.11c.85-.92 1.78-1.77 2.8-2.51a6.37 6.37 0 0 1 4.63-1.39l-2.88-14.05Z" fill="#F06351"/></g></symbol><symbol id="phone" viewBox="0 0 20 21"><path d="M8.1 13.566v6.221a.503.503 0 0 1-.6.502H2.9a2.882 2.882 0 0 1-2.128-.919A2.901 2.901 0 0 1 0 17.178V3.23a3.019 3.019 0 0 1 .949-2.1A2.998 2.998 0 0 1 3.1.32h4.4a.859.859 0 0 1 .7.603v6.321a.653.653 0 0 1-.6.602H3.2a1.226 1.226 0 0 1 1.2-1.204h2.4V1.625H2.9c-.462.018-.9.218-1.217.555A1.78 1.78 0 0 0 1.2 3.431V17.48a1.801 1.801 0 0 0 1.202 1.61c.224.079.461.111.698.096h3.7v-5.017H4.3a1.218 1.218 0 0 1-1.2-1.204h4.4a.649.649 0 0 1 .6.602Zm1.3-3.813h8.5l-2.1-2.007.9-.903 3.1 3.11a.754.754 0 0 1 0 .904l-3.1 3.11-.9-.903 2.1-2.107H9.4V9.753Z"/></symbol><symbol id="plus"><g fill="none"><path stroke="#D3D3D3" stroke-width="2" d="M31 0v60M60 31H0"/></g></symbol><symbol id="vk" viewBox="0 0 21 13"><path d="M.07 1.993c0-.622.423-.957 1.27-1.006l3.26.018c.22 0 .365.091.438.274.336.915.711 1.704 1.127 2.369.416.664.96 1.43 1.63 2.295.059.11.154.165.285.165a.276.276 0 0 0 .24-.128l.067-.201.021-3.164c0-.22-.062-.366-.186-.44-.124-.073-.353-.127-.689-.164-.263-.037-.394-.17-.394-.402 0-.05.007-.086.022-.11C7.467.706 8.343.31 9.787.31l1.226-.018c.554 0 1.014.116 1.379.347.364.232.547.598.547 1.098v4.151a.562.562 0 0 0 .284.092c.22 0 .409-.11.57-.33 1.604-1.877 2.472-3.133 2.604-3.767a.29.29 0 0 1 .044-.092c.102-.182.27-.34.503-.475.233-.134.438-.226.613-.274a.507.507 0 0 1 .197-.037h3.392l.219.018c.292 0 .518.116.678.348a.63.63 0 0 1 .12.238c.022.085.037.17.044.256.008.085.011.134.011.146v.128c-.102.5-.36 1.033-.777 1.6-.415.567-.944 1.18-1.586 1.838-.642.659-1.044 1.092-1.204 1.299-.131.146-.197.28-.197.402 0 .098.058.208.175.33l3.195 3.365a.939.939 0 0 1 .263.64c0 .28-.131.512-.394.695a1.826 1.826 0 0 1-.941.31l-.372.02h-3.327a.794.794 0 0 0-.087.008.802.802 0 0 1-.088.01c-.32 0-.62-.116-.897-.348-.102-.098-.788-.817-2.057-2.158a1.107 1.107 0 0 0-.307-.238c-.058.195-.135.475-.23.841-.094.366-.164.628-.207.787l-.066.31c-.146.427-.452.684-.92.769l-.306.018H9.743c-1.21 0-2.418-.463-3.622-1.39-1.203-.927-2.287-2.125-3.25-3.594-.963-1.469-1.86-3.18-2.691-5.13a1.254 1.254 0 0 1-.11-.53ZM13.223 6.73a1.66 1.66 0 0 1-.831-.21c-.248-.14-.372-.333-.372-.577V1.737c0-.244-.073-.418-.22-.522-.145-.103-.4-.155-.765-.155l-1.248.036c-.627 0-1.101.092-1.422.275.642.256.963.67.963 1.244v3.218c-.03.305-.175.558-.438.76a1.405 1.405 0 0 1-.875.301c-.438 0-.774-.177-1.007-.53C5.87 4.925 5.024 3.559 4.469 2.267l-.197-.476-2.91-.018c-.19 0-.296.01-.318.028-.022.018-.033.07-.033.155 0 .11.015.226.044.348l.46 1.024C2.74 5.974 4.07 8.058 5.509 9.583c1.437 1.524 2.848 2.286 4.234 2.286h2.189c.088 0 .153-.021.197-.064.044-.043.08-.125.11-.247l.043-.183.416-1.61c.117-.219.219-.365.306-.438a.86.86 0 0 1 .57-.201c.35 0 .707.176 1.072.53l1.86 1.975c.117.159.24.238.372.238h3.611c.438 0 .657-.091.657-.274a.312.312 0 0 0-.066-.183l-3.173-3.31c-.248-.257-.372-.531-.372-.824 0-.292.116-.573.35-.841.19-.244.558-.65 1.105-1.216a28.203 28.203 0 0 0 1.434-1.591c.408-.494.678-.942.81-1.345l.065-.237a.243.243 0 0 1-.022-.12c0-.054-.007-.1-.022-.137H17.82a1.199 1.199 0 0 0-.525.33l-.131.347c-.365.841-1.32 2.14-2.867 3.896a1.672 1.672 0 0 1-1.073.366Z"/></symbol></svg>